<svg id="Capa_1" xmlns="http://www.w3.org/2000/svg" viewBox="0 0 469.5 469.5"><style>.st0{fill:#f2ebd9}.st1{fill:#cecece}.st2{fill:#f2960f}.st3{fill:#082947}</style><path class="st0" d="M348.8 372V37.4c0-8.4 2.8-16.2 7.5-22.5H83.2c-12.6 0-22.4 9.6-22.4 22V372c0 12.7 10 23 22.4 23h73.6v-45.1c-12.5-12.6-19.6-29.8-19.6-47.6 0-37.2 30.3-67.5 67.5-67.5s67.5 30.3 67.5 67.5c0 18.2-7.4 35.6-20.4 48.3V395l104.6-.2c-4.8-6.3-7.6-14.2-7.6-22.8zM128.7 85.1l23.3-30c1.4-1.8 3.6-2.9 5.9-2.9 2.3 0 4.5 1.1 5.9 2.9l17.4 22.4 17.4-22.4c1.4-1.8 3.6-2.9 5.9-2.9 2.3 0 4.5 1.1 5.9 2.9l17.4 22.4 17.4-22.4c1.4-1.8 3.6-2.9 5.9-2.9s4.5 1.1 5.9 2.9l23.3 30c2.5 3.3 2 8-1.3 10.5s-8 2-10.5-1.3l-17.4-22.4-17.4 22.4c-1.4 1.8-3.6 2.9-5.9 2.9s-4.5-1.1-5.9-2.9l-17.4-22.4-17.4 22.4c-1.4 1.8-3.6 2.9-5.9 2.9-2.3 0-4.5-1.1-5.9-2.9l-17.4-22.4-17.4 22.4c-1.5 1.9-3.7 2.9-5.9 2.9-1.6 0-3.2-.5-4.6-1.6-3.3-2.6-3.9-7.3-1.3-10.5zM104.8 122h140c4.1 0 7.5 3.4 7.5 7.5s-3.4 7.5-7.5 7.5h-140c-4.1 0-7.5-3.4-7.5-7.5s3.3-7.5 7.5-7.5zm170 75h-140c-4.1 0-7.5-3.4-7.5-7.5s3.4-7.5 7.5-7.5h140c4.1 0 7.5 3.4 7.5 7.5s-3.4 7.5-7.5 7.5zm30-30h-200c-4.1 0-7.5-3.4-7.5-7.5s3.4-7.5 7.5-7.5h200c4.1 0 7.5 3.4 7.5 7.5s-3.4 7.5-7.5 7.5zm0-30h-30c-4.1 0-7.5-3.4-7.5-7.5s3.4-7.5 7.5-7.5h30c4.1 0 7.5 3.4 7.5 7.5s-3.4 7.5-7.5 7.5z"/><path class="st1" d="M386.1 15c-12.3.1-22.3 10.1-22.3 22.5V82h45V37c0-12.1-10.2-22-22.7-22zM363.8 372c0 12.5 10 22.6 22.3 22.7 12.3 0 22.7-10.4 22.7-22.7v-45h-45v45z"/><path class="st2" d="M204.6 249.8c-28.9 0-52.5 23.6-52.5 52.5 0 14.8 6.3 29 17.3 38.9 9.7 8.7 22.2 13.6 35.2 13.6 12.3 0 24.1-4.3 33.5-12.1.7-1 1.6-1.8 2.6-2.3 10.4-9.9 16.4-23.7 16.4-38 0-29-23.6-52.6-52.5-52.6zm0 90.1c-20.7 0-37.5-16.8-37.5-37.5s16.8-37.5 37.5-37.5 37.5 16.8 37.5 37.5-16.8 37.5-37.5 37.5zM207.6 435.3l29.1 14.6v-88.2c-9.8 5.3-20.8 8.2-32.1 8.2-11.6 0-22.9-3-32.9-8.6v88.6l29.1-14.6c2.2-1.1 4.7-1.1 6.8 0z"/><path class="st2" d="M204.6 279.9c-12.4 0-22.5 10.1-22.5 22.5s10.1 22.5 22.5 22.5 22.5-10.1 22.5-22.5-10.1-22.5-22.5-22.5z"/><path class="st3" d="M416.2 97c4.1 0 7.5-3.4 7.5-7.5V36.9c0-20.4-16.9-37-37.7-37H83.2c-21 0-37.4 16.2-37.4 37V372c0 20.9 16.8 38 37.4 38h73.6v52c0 2.6 1.3 5 3.6 6.4s5 1.5 7.3.3l36.6-18.3 36.6 18.3c1.1.5 2.2.8 3.4.8 1.4 0 2.7-.4 3.9-1.1 2.2-1.4 3.6-3.8 3.6-6.4v-52l134.3-.2c20.8 0 37.7-16.9 37.7-37.7v-52.6c0-4.1-3.4-7.5-7.5-7.5h-52.5V97h52.4zm-7.4 275c0 12.3-10.4 22.7-22.7 22.7-12.3-.1-22.3-10.2-22.3-22.7v-45h45v45zm-168.1-31.6c-1.1.6-1.9 1.4-2.6 2.3a52.38 52.38 0 0 1-33.5 12.1c-13 0-25.5-4.8-35.2-13.6-11-10-17.3-24.2-17.3-38.9 0-28.9 23.6-52.5 52.5-52.5s52.5 23.6 52.5 52.5c0 14.4-6 28.2-16.4 38.1zm-68.9 109.5v-88.6c10 5.6 21.2 8.6 32.9 8.6 11.3 0 22.3-2.8 32.1-8.2v88.2l-29.1-14.6c-2.1-1.1-4.6-1.1-6.7 0l-29.2 14.6zm80-99.3c13-12.7 20.4-30.1 20.4-48.3 0-37.2-30.3-67.5-67.5-67.5s-67.5 30.3-67.5 67.5c0 17.8 7.1 34.9 19.6 47.6V395H83.2c-12.4 0-22.4-10.3-22.4-23V36.9c0-12.3 9.8-22 22.4-22h273.1c-4.7 6.3-7.5 14-7.5 22.5V372c0 8.5 2.8 16.4 7.6 22.8l-104.6.2v-44.4zM408.8 82h-45V37.4c0-12.3 10-22.4 22.3-22.5 12.5 0 22.7 9.9 22.7 22V82z"/><path class="st3" d="M204.6 264.9c-20.7 0-37.5 16.8-37.5 37.5s16.8 37.5 37.5 37.5 37.5-16.8 37.5-37.5-16.8-37.5-37.5-37.5zm0 60c-12.4 0-22.5-10.1-22.5-22.5s10.1-22.5 22.5-22.5 22.5 10.1 22.5 22.5-10.1 22.5-22.5 22.5zM304.8 152h-200c-4.1 0-7.5 3.4-7.5 7.5s3.4 7.5 7.5 7.5h200c4.1 0 7.5-3.4 7.5-7.5s-3.4-7.5-7.5-7.5zM274.8 182h-140c-4.1 0-7.5 3.4-7.5 7.5s3.4 7.5 7.5 7.5h140c4.1 0 7.5-3.4 7.5-7.5s-3.4-7.5-7.5-7.5zM304.8 122h-30c-4.1 0-7.5 3.4-7.5 7.5s3.4 7.5 7.5 7.5h30c4.1 0 7.5-3.4 7.5-7.5s-3.4-7.5-7.5-7.5zM104.8 137h140c4.1 0 7.5-3.4 7.5-7.5s-3.4-7.5-7.5-7.5h-140c-4.1 0-7.5 3.4-7.5 7.5s3.3 7.5 7.5 7.5zM130 95.6c1.4 1.1 3 1.6 4.6 1.6 2.2 0 4.4-1 5.9-2.9l17.4-22.4 17.4 22.4c1.4 1.8 3.6 2.9 5.9 2.9 2.3 0 4.5-1.1 5.9-2.9l17.4-22.4L222 94.3c1.4 1.8 3.6 2.9 5.9 2.9s4.5-1.1 5.9-2.9l17.4-22.4 17.4 22.4c2.5 3.3 7.3 3.9 10.5 1.3 3.3-2.5 3.9-7.3 1.3-10.5l-23.3-30c-1.4-1.8-3.6-2.9-5.9-2.9s-4.5 1.1-5.9 2.9l-17.4 22.4-17.4-22.4c-1.4-1.8-3.6-2.9-5.9-2.9-2.3 0-4.5 1.1-5.9 2.9l-17.4 22.4-17.4-22.4c-1.4-1.8-3.6-2.9-5.9-2.9-2.3 0-4.5 1.1-5.9 2.9l-23.3 30c-2.7 3.2-2.1 7.9 1.2 10.5z"/></svg>