<svg xmlns="http://www.w3.org/2000/svg" viewBox="0 0 512 512"><path d="M471.999 256c13.232 0 24-10.768 24-24V16h-280v144h-8v26.728l3.72-1.592 55.072-47.2a7.998 7.998 0 0 1 10.864.416l24 24a7.991 7.991 0 0 1 0 11.312l-56 56a7.897 7.897 0 0 1-2.08 1.504l-35.576 17.776V264h16v-8h248zm-128-72h-24v-16h24v16zm0-32h-32v-16h32v16zm-96-72V48c0-4.424 3.584-8 8-8h80c4.416 0 8 3.576 8 8v8h24v-8c0-4.424 3.584-8 8-8h80c4.416 0 8 3.576 8 8v32c0 4.424-3.584 8-8 8h-32v24h32c4.416 0 8 3.576 8 8v32c0 4.424-3.584 8-8 8h-32v24h32c4.416 0 8 3.576 8 8v32c0 4.424-3.584 8-8 8h-80c-4.416 0-8-3.576-8-8v-32c0-4.424 3.584-8 8-8h32v-24h-32c-4.416 0-8-3.576-8-8v-32c0-4.424 3.584-8 8-8h32V88h-32c-4.416 0-8-3.576-8-8v-8h-24v8c0 4.424-3.584 8-8 8h-80c-4.416 0-8-3.576-8-8zm8 40v-16h88v16h-88zm40 80h48v16h-48v-16z" fill="#f5efe6"/><path d="M31.999 64h8a7.994 7.994 0 0 1 6.4 3.2l9.6 12.8v-8c0-4.424 3.584-8 8-8h56c4.408 0 8-3.584 8-8V24c0-4.416-3.592-8-8-8h-88c-4.408 0-8 3.584-8 8v32c0 4.416 3.592 8 8 8zm8-32h72v16h-72V32z" fill="#ebaa39"/><circle cx="127.999" cy="144" r="32" fill="#5e8da7"/><g fill="#ebaa39"><path d="M383.999 56h64v16h-64z"/><circle cx="303.999" cy="400" r="32"/></g><g fill="#5e8da7"><path d="M271.583 154.896l-50.376 43.168a8.051 8.051 0 0 1-2.056 1.28l-56 24a7.784 7.784 0 0 1-3.152.656H67.631l-50.592 57.816 19.632 58.896 17.168-8.584-13.272-33.168a8.014 8.014 0 0 1 1.184-7.968l32-40A8.002 8.002 0 0 1 87.999 256v216c0 13.232 10.768 24 24 24h8V368c0-4.424 3.584-8 8-8s8 3.576 8 8v128h32V256c0-3.032 1.712-5.8 4.424-7.152l62.84-31.424L284.687 168l-13.104-13.104zM143.999 256h-8v64h-16v-64h-8v-16h32v16z"/><path d="M71.431 333.032c.368.92.552 1.864.568 2.816v-57.04l-14.84 18.552 14.272 35.672z"/></g><g fill="#ebaa39"><path d="M263.999 56h64v16h-64zM383.999 128h64v16h-64z"/></g><path fill="#c13d3d" d="M383.999 200h64v16h-64z"/><g fill="#ebaa39"><circle cx="383.999" cy="400" r="32"/><circle cx="463.999" cy="400" r="32"/><path d="M303.999 448c-17.648 0-32 14.352-32 32v32h64v-32c0-17.648-14.352-32-32-32zM383.999 448c-17.648 0-32 14.352-32 32v32h64v-32c0-17.648-14.352-32-32-32zM463.999 448c-17.648 0-32 14.352-32 32v32h64v-32c0-17.648-14.352-32-32-32z"/></g><g fill="#1f2933"><path d="M79.999 144c0 26.472 21.528 48 48 48s48-21.528 48-48-21.528-48-48-48-48 21.528-48 48zm80 0c0 17.648-14.352 32-32 32s-32-14.352-32-32 14.352-32 32-32 32 14.352 32 32z"/><path d="M245.655 229.656l56-56a7.991 7.991 0 0 0 0-11.312l-24-24a7.998 7.998 0 0 0-10.864-.416l-55.072 47.2-3.72 1.6L158.359 208h-94.36a7.948 7.948 0 0 0-6.016 2.736l-56 64a7.982 7.982 0 0 0-1.568 7.8l24 72a8.017 8.017 0 0 0 4.528 4.856c2.144.872 4.552.8 6.64-.232l32-16a7.998 7.998 0 0 0 4.416-7.008V472c0 22.056 17.944 40 40 40h64c4.416 0 8-3.576 8-8V260.944l24-12 35.576-17.792a7.693 7.693 0 0 0 2.08-1.496zM71.999 335.848a7.964 7.964 0 0 0-.568-2.816L57.159 297.36l14.84-18.552v57.04zm100.424-87a7.988 7.988 0 0 0-4.424 7.152v240h-32V368c0-4.424-3.584-8-8-8s-8 3.576-8 8v128h-8c-13.232 0-24-10.768-24-24V256c0-3.4-2.144-6.424-5.352-7.544A8.002 8.002 0 0 0 73.751 251l-32 40a8.014 8.014 0 0 0-1.184 7.968l13.272 33.168-17.168 8.584-19.632-58.904L67.631 224h92.368a7.94 7.94 0 0 0 3.152-.648l56-24a8.051 8.051 0 0 0 2.056-1.28l50.376-43.168L284.687 168l-49.424 49.424-62.84 31.424z"/><path d="M111.999 256h8v64h16v-64h8v-16h-32zM511.999 400c0-26.472-21.528-48-48-48-16.688 0-31.392 8.568-40 21.52-8.608-12.96-23.312-21.52-40-21.52s-31.392 8.568-40 21.52c-8.608-12.96-23.312-21.52-40-21.52-26.472 0-48 21.528-48 48 0 16.688 8.568 31.392 21.52 40-12.952 8.608-21.52 23.312-21.52 40v32h16v-32c0-17.648 14.352-32 32-32s32 14.352 32 32v32h16v-32c0-17.648 14.352-32 32-32s32 14.352 32 32v32h16v-32c0-17.648 14.352-32 32-32s32 14.352 32 32v32h16v-32c0-16.688-8.568-31.392-21.52-40 12.952-8.608 21.52-23.312 21.52-40zm-88 26.48c3.56 5.36 8.16 9.96 13.52 13.52a48.349 48.349 0 0 0-13.52 13.52 48.243 48.243 0 0 0-13.52-13.52c5.36-3.56 9.96-8.16 13.52-13.52zm-40-58.48c17.648 0 32 14.352 32 32s-14.352 32-32 32-32-14.352-32-32 14.352-32 32-32zm-40 58.48c3.56 5.36 8.16 9.96 13.52 13.52a48.349 48.349 0 0 0-13.52 13.52 48.243 48.243 0 0 0-13.52-13.52c5.36-3.56 9.96-8.16 13.52-13.52zm-72-26.48c0-17.648 14.352-32 32-32s32 14.352 32 32-14.352 32-32 32-32-14.352-32-32zm192 32c-17.648 0-32-14.352-32-32s14.352-32 32-32 32 14.352 32 32-14.352 32-32 32zM503.999 0h-296c-4.416 0-8 3.576-8 8v152h16V16h280v216c0 13.232-10.768 24-24 24h-248v16h248c22.056 0 40-17.944 40-40V8c0-4.424-3.584-8-8-8z"/><path d="M335.999 88c4.416 0 8-3.576 8-8v-8h24v8c0 4.424 3.584 8 8 8h32v24h-32c-4.416 0-8 3.576-8 8v32c0 4.424 3.584 8 8 8h32v24h-32c-4.416 0-8 3.576-8 8v32c0 4.424 3.584 8 8 8h80c4.416 0 8-3.576 8-8v-32c0-4.424-3.584-8-8-8h-32v-24h32c4.416 0 8-3.576 8-8v-32c0-4.424-3.584-8-8-8h-32V88h32c4.416 0 8-3.576 8-8V48c0-4.424-3.584-8-8-8h-80c-4.416 0-8 3.576-8 8v8h-24v-8c0-4.424-3.584-8-8-8h-80c-4.416 0-8 3.576-8 8v32c0 4.424 3.584 8 8 8h80zm112 112v16h-64v-16h64zm0-72v16h-64v-16h64zm-64-72h64v16h-64V56zm-120 0h64v16h-64V56z"/><path d="M255.999 104h88v16h-88zM311.999 136h32v16h-32zM319.999 168h24v16h-24zM295.999 200h48v16h-48zM31.999 80h4l21.6 28.8a8.017 8.017 0 0 0 6.4 3.2c.84 0 1.696-.136 2.528-.416A7.983 7.983 0 0 0 71.999 104V80h48c13.232 0 24-10.768 24-24V24c0-13.232-10.768-24-24-24h-88c-13.232 0-24 10.768-24 24v32c0 13.232 10.768 24 24 24zm-8-56c0-4.416 3.592-8 8-8h88c4.408 0 8 3.584 8 8v32c0 4.416-3.592 8-8 8h-56c-4.416 0-8 3.576-8 8v8l-9.6-12.8a7.994 7.994 0 0 0-6.4-3.2h-8c-4.408 0-8-3.584-8-8V24z"/><path d="M39.999 32h72v16h-72z"/></g></svg>