<svg xmlns="http://www.w3.org/2000/svg" viewBox="0 0 496.485 496.485"><circle cx="252.121" cy="247.467" r="244.364" fill="#f16051"/><circle cx="244.364" cy="300.994" r="50.424" fill="#fff"/><path d="M244.364 358.4c-31.806 0-57.406-25.6-57.406-57.406s25.6-57.406 57.406-57.406 57.406 25.6 57.406 57.406c.775 31.806-25.6 57.406-57.406 57.406zm0-100.073c-23.273 0-42.667 19.394-42.667 42.667 0 23.273 19.394 42.667 42.667 42.667s42.667-19.394 42.667-42.667c-.001-23.273-19.395-42.667-42.667-42.667z" fill="#193651"/><path d="M66.715 312.63c-32.582 0-58.958 26.376-58.958 58.958v113.261h117.915V370.812c-.775-31.806-27.151-58.182-58.957-58.182z" fill="#fff"/><path d="M66.715 304.873C30.255 304.873 0 334.352 0 371.588v113.261c0 3.879 3.103 7.758 7.758 7.758h117.915c3.879 0 7.758-3.103 7.758-7.758V370.812c-.776-36.46-30.255-65.939-66.716-65.939zm51.2 171.442h-102.4V370.812c0-27.927 23.273-51.2 51.2-51.2s51.2 23.273 51.2 51.2v105.503z" fill="#193651"/><path d="M38.012 453.818v-83.006c0-15.515 12.412-27.927 27.927-27.927s27.927 12.412 27.927 27.927v83.006H38.012z" fill="#e1e6e9"/><circle cx="75.248" cy="280.824" r="50.424" fill="#fff"/><path d="M75.248 338.23c-31.806 0-57.406-25.6-57.406-57.406 0-31.806 25.6-57.406 57.406-57.406s57.406 25.6 57.406 57.406c.001 31.806-25.599 57.406-57.406 57.406zm0-100.072c-23.273 0-42.667 19.394-42.667 42.667s19.394 42.667 42.667 42.667 42.667-19.394 42.667-42.667-19.394-42.667-42.667-42.667z" fill="#193651"/><path d="M422.788 312.63c32.582 0 58.958 26.376 58.958 58.958v113.261H363.83V370.812c0-31.806 26.376-58.182 58.958-58.182z" fill="#fff"/><path d="M422.788 304.873c-36.461 0-66.715 29.479-66.715 66.715v113.261c0 3.879 3.103 7.758 7.758 7.758H480.97c3.879 0 7.758-3.103 7.758-7.758V370.812c-.001-36.46-29.479-65.939-65.94-65.939zm50.424 171.442H371.588V370.812c0-27.927 23.273-51.2 51.2-51.2 27.927 0 51.2 23.273 51.2 51.2v105.503h-.776z" fill="#193651"/><path d="M394.085 453.818v-83.006a27.81 27.81 0 0 1 27.927-27.927 27.81 27.81 0 0 1 27.927 27.927v83.006h-55.854z" fill="#e1e6e9"/><circle cx="413.479" cy="280.824" r="50.424" fill="#fff"/><path d="M413.479 338.23c-31.806 0-57.406-25.6-57.406-57.406 0-31.806 25.6-57.406 57.406-57.406s57.406 25.6 57.406 57.406c.776 31.806-25.6 57.406-57.406 57.406zm0-100.072c-23.273 0-42.667 19.394-42.667 42.667s19.394 42.667 42.667 42.667 42.667-19.394 42.667-42.667-18.619-42.667-42.667-42.667z" fill="#193651"/><path d="M304.873 354.521c-14.739 16.291-36.461 27.151-59.733 27.151-24.048 0-44.994-10.861-59.733-27.151-16.291 6.982-27.927 23.273-27.927 42.667V486.4h176.097v-89.212c-.777-19.394-12.413-35.685-28.704-42.667z" fill="#fff"/><path d="M332.8 493.382H155.927c-3.879 0-7.758-3.103-7.758-7.758v-88.436c0-21.721 13.188-41.115 32.582-49.648 3.103-1.552 6.206-.776 8.533 2.327 13.964 15.515 33.358 24.824 54.303 24.824s40.339-8.533 54.303-24.824c2.327-2.327 5.43-3.103 8.533-2.327 20.17 8.533 32.582 27.927 32.582 49.648V486.4c1.553 3.879-2.326 6.982-6.205 6.982zm-169.115-15.515h161.358v-80.679c0-13.964-6.982-26.376-18.618-32.582-16.291 16.291-38.788 25.6-62.061 25.6s-44.994-9.309-62.061-25.6c-11.636 6.982-18.618 19.394-18.618 32.582v80.679z" fill="#193651"/><path d="M186.958 455.37V396.412c17.067 10.861 37.236 16.291 57.406 16.291s40.339-5.43 57.406-16.291V455.37H186.958z" fill="#4fbf9f"/><g fill="#193651"><path d="M199.37 425.891h15.515v15.515H199.37zM236.606 425.891h15.515v15.515h-15.515zM274.618 425.891h15.515v15.515h-15.515zM415.03 355.297h15.515v15.515H415.03zM415.03 390.982h15.515v15.515H415.03zM415.03 425.891h15.515v15.515H415.03z"/></g><g fill="#193651"><path d="M58.958 355.297h15.515v15.515H58.958zM58.958 390.982h15.515v15.515H58.958zM58.958 425.891h15.515v15.515H58.958z"/></g><path d="M64.388 93.091c0-43.442 44.218-78.352 98.521-78.352s99.297 34.909 99.297 78.352c0 38.012-34.909 69.818-80.679 76.8-12.412 14.739-37.236 32.582-82.23 36.461 0 0 24.824-19.394 22.497-41.891-34.133-13.188-57.406-40.34-57.406-71.37z" fill="#2ea2db"/><path d="M99.297 213.333c-3.103 0-6.206-1.552-6.982-4.655-1.552-3.103 0-6.982 2.327-8.533 0 0 18.618-13.964 19.394-31.03-34.909-14.739-57.406-44.218-57.406-76.024 0-47.321 48.097-85.333 106.279-85.333 58.958 0 106.279 38.788 106.279 85.333 0 40.339-34.909 75.248-83.782 83.782-13.964 14.739-39.564 32.582-86.109 36.46zm63.612-190.836c-50.424 0-91.539 31.806-91.539 70.594 0 27.152 20.945 51.976 52.752 63.612 3.103.776 4.655 3.103 4.655 6.206 1.552 12.412-3.879 24.048-10.085 32.582 29.479-6.206 46.545-19.394 55.855-31.03 1.552-1.552 3.103-2.327 4.655-2.327 42.667-6.206 73.697-35.685 73.697-69.042 1.549-38.789-39.566-70.595-89.99-70.595z" fill="#193651"/><path d="M162.909 143.515c38.012 0 69.818-23.273 69.818-50.424s-31.806-50.424-69.818-50.424-69.818 23.272-69.818 50.424 31.806 50.424 69.818 50.424z" fill="#fff"/><path d="M424.339 93.091c0-43.442-44.218-78.352-98.521-78.352s-98.521 34.909-98.521 78.352c0 38.012 34.909 69.818 80.679 76.8 12.412 14.739 37.236 32.582 82.23 36.461 0 0-24.824-19.394-22.497-41.891 33.358-13.188 56.63-40.34 56.63-71.37z" fill="#fdbf5e"/><path d="M389.43 213.333c-46.545-3.879-72.145-21.721-86.109-37.236-48.873-8.533-83.782-43.442-83.782-83.782 0-47.321 48.097-85.333 106.279-85.333 58.958 0 106.279 38.788 106.279 85.333 0 31.806-22.497 61.285-57.406 76.024 1.552 16.291 19.394 30.255 19.394 31.03 2.327 2.327 3.879 5.43 2.327 8.533-.776 3.88-3.879 5.431-6.982 5.431zM325.818 22.497c-50.424 0-91.539 31.806-91.539 70.594 0 33.358 31.03 62.836 73.697 69.042 1.552 0 3.879 1.552 4.655 2.327 9.309 10.861 26.376 24.048 55.855 31.03-6.206-8.533-10.861-19.394-10.085-32.582 0-3.103 2.327-5.43 4.655-6.206 31.806-11.636 52.751-36.461 52.751-63.612 1.551-38.787-39.565-70.593-89.989-70.593z" fill="#193651"/><path d="M325.818 143.515c-38.012 0-69.818-23.273-69.818-50.424s31.806-50.424 69.818-50.424 69.818 23.273 69.818 50.424-31.806 50.424-69.818 50.424z" fill="#fff"/><g fill="#193651"><circle cx="294.012" cy="93.091" r="8.533"/><circle cx="325.818" cy="93.091" r="8.533"/><circle cx="357.624" cy="93.091" r="8.533"/></g><g fill="#e1e6e9"><circle cx="131.103" cy="93.091" r="8.533"/><circle cx="162.909" cy="93.091" r="8.533"/><circle cx="194.715" cy="93.091" r="8.533"/></g></svg>