<svg xmlns="http://www.w3.org/2000/svg" viewBox="0 0 480 480"><path d="M376 376v-96c-8.304 0-16.32 1.168-24 3.144a95.46 95.46 0 0 0-26.008 11.024h-.008a96.222 96.222 0 0 0-26.72 24.312c-.072.088-.136.184-.208.272a94.212 94.212 0 0 0-5.008 7.424c-.36.592-.664 1.216-1.016 1.816h-.088c-.264.456-.448.96-.704 1.416-.624 1.112-1.288 2.2-1.864 3.336-.248.496-.488 1.008-.728 1.512-.56 1.152-1.048 2.336-1.568 3.512-.272.624-.568 1.232-.832 1.864-.128.312-.288.608-.408.92-.32.8-.592 1.624-.896 2.44-.704 1.912-1.392 3.84-1.976 5.808-.152.52-.288 1.04-.432 1.56-.136.496-.232 1.008-.36 1.504-.048.168-.08.344-.128.52-.432 1.688-.88 3.376-1.224 5.104-.264 1.32-.416 2.68-.624 4.016-.136.904-.288 1.792-.4 2.704-.096.792-.24 1.56-.32 2.352A96.98 96.98 0 0 0 280 376c0 4 .312 7.92.8 11.792.12.976.296 1.936.44 2.912.488 3.136 1.104 6.232 1.896 9.264.176.688.336 1.384.528 2.064.984 3.504 2.232 6.888 3.592 10.216.288.696.568 1.384.872 2.072 1.424 3.264 2.976 6.464 4.744 9.528.032.048.048.104.08.152h.016c16.584 28.68 47.52 48 83.032 48v-96z" fill="#68e8bb"/><path d="M470.76 361.296c-.488-3.136-1.104-6.232-1.896-9.264-.176-.688-.336-1.384-.528-2.064-1.008-3.592-2.28-7.072-3.68-10.472-.184-.44-.344-.88-.528-1.32a96.448 96.448 0 0 0-4.6-9.24c-.176-.304-.296-.64-.472-.944h-.08c-5.088-8.768-11.472-16.68-18.976-23.408a98.485 98.485 0 0 0-6.488-5.328c-.088-.072-.184-.136-.272-.208a92.392 92.392 0 0 0-7.424-5.008 95.655 95.655 0 0 0-6.568-3.672c-.496-.248-1.008-.488-1.512-.728-2.064-1-4.152-1.952-6.296-2.808-.8-.32-1.624-.592-2.44-.896-1.92-.704-3.832-1.392-5.808-1.976-1.176-.344-2.384-.616-3.584-.92-1.696-.432-3.376-.888-5.104-1.224-1.688-.328-3.408-.544-5.12-.784-1.32-.184-2.616-.432-3.952-.568-3.104-.288-6.248-.464-9.432-.464v192c35.512 0 66.448-19.32 83.032-48h.016c.032-.048.048-.104.08-.152 1.768-3.064 3.32-6.256 4.744-9.528.296-.688.584-1.376.872-2.072 1.36-3.328 2.608-6.712 3.592-10.216.192-.68.352-1.376.528-2.064.792-3.032 1.408-6.12 1.896-9.264.152-.968.32-1.928.44-2.912.488-3.872.8-7.792.8-11.792s-.312-7.92-.8-11.792c-.12-.976-.288-1.944-.44-2.912z" fill="#17b2b0"/><g fill="#ffa244"><path d="M352 280c0-44.184-35.816-80-80-80h-96c-44.184 0-80 35.816-80 80v32h208.592a96.186 96.186 0 0 1 21.392-17.824h.008A95.423 95.423 0 0 1 352 283.152V280zM296 128c0-39.768-32.232-72-72-72s-72 32.232-72 72c0 14.808 4.48 28.56 12.144 40 12.92 19.288 34.896 32 59.856 32 39.768 0 72-32.232 72-72z"/></g><path d="M128 128h16c4.416 0 8-3.584 8-8V88c0-4.416-3.584-8-8-8h-16c-4.416 0-8 3.584-8 8v32c0 4.416 3.584 8 8 8z" fill="#17b2b0"/><path d="M280.8 364.208c.112-.912.264-1.8.4-2.704.208-1.344.36-2.696.624-4.016.344-1.728.792-3.408 1.224-5.104.04-.176.08-.344.128-.52.128-.496.224-1.008.36-1.504.144-.52.28-1.04.432-1.56.584-1.968 1.272-3.896 1.976-5.808.296-.816.576-1.64.896-2.44.128-.312.28-.608.408-.92.264-.632.56-1.24.832-1.864.512-1.176 1.008-2.36 1.568-3.512.24-.504.48-1.016.728-1.512.576-1.136 1.24-2.224 1.864-3.336.256-.456.44-.96.704-1.416h.088c.352-.6.656-1.224 1.016-1.816.16-.264.312-.528.48-.784a99.022 99.022 0 0 1 4.528-6.64c.072-.088.136-.184.208-.272a96.435 96.435 0 0 1 5.328-6.488H96v-32c0-44.184 35.816-80 80-80h48c-24.96 0-46.944-12.712-59.856-32C156.48 156.56 152 142.808 152 128c0-39.768 32.232-72 72-72s72 32.232 72 72-32.232 72-72 72h48c44.184 0 80 35.816 80 80v3.144c7.68-1.976 15.696-3.144 24-3.144 3.184 0 6.328.176 9.44.48 1.336.128 2.632.376 3.952.568 1.712.24 3.44.456 5.12.784 1.728.336 3.408.792 5.104 1.224 1.2.304 2.408.576 3.584.92 1.976.584 3.888 1.272 5.808 1.976.816.296 1.64.576 2.44.896 2.144.856 4.232 1.808 6.296 2.808.504.24 1.016.48 1.512.728a95.655 95.655 0 0 1 6.568 3.672c.264.16.528.312.784.48a96.105 96.105 0 0 1 6.64 4.528c.088.072.184.136.272.208a96.435 96.435 0 0 1 6.488 5.328V40c0-17.672-14.328-32-32-32H40C22.328 8 8 22.328 8 40v304c0 17.672 14.328 32 32 32h240c0-3.184.176-6.328.48-9.44.072-.792.224-1.56.32-2.352zM120 88c0-4.416 3.584-8 8-8h16c4.416 0 8 3.584 8 8v32c0 4.416-3.584 8-8 8h-16c-4.416 0-8-3.584-8-8V88z" fill="#dcdcdc"/><path d="M475.92 404.552c.488-1.696.92-3.408 1.32-5.128.256-1.12.552-2.232.776-3.368.536-2.696.928-5.424 1.248-8.152.104-.896.192-1.784.272-2.688.272-3.056.464-6.128.464-9.216s-.192-6.16-.464-9.216c-.08-.896-.168-1.792-.272-2.688-.32-2.736-.712-5.456-1.248-8.152-.224-1.136-.52-2.248-.776-3.368-.4-1.72-.832-3.424-1.32-5.128-.4-1.384-.808-2.76-1.256-4.128-.52-1.552-1.104-3.088-1.688-4.616a106.306 106.306 0 0 0-2.664-6.28 101.556 101.556 0 0 0-1.76-3.64 102.196 102.196 0 0 0-2.16-4.032c-.144-.248-.264-.504-.4-.752-.072-.12-.176-.216-.256-.336-4.872-8.312-10.824-15.896-17.72-22.528V40c0-22.056-17.944-40-40-40H40C17.944 0 0 17.944 0 40v304c0 22.056 17.944 40 40 40h232.344c.032.408.088.816.12 1.216.08.896.168 1.792.272 2.688.32 2.736.712 5.456 1.248 8.152.224 1.136.52 2.248.776 3.368.4 1.72.832 3.424 1.32 5.128.4 1.384.808 2.76 1.256 4.128.52 1.552 1.104 3.088 1.688 4.616a106.306 106.306 0 0 0 2.664 6.28c.568 1.224 1.144 2.44 1.76 3.64.696 1.36 1.408 2.712 2.16 4.032.144.248.264.504.4.752.072.12.176.216.256.336C304.344 459.184 337.752 480 376 480s71.656-20.816 89.72-51.656c.08-.12.184-.208.256-.336.144-.248.264-.504.4-.752a108.183 108.183 0 0 0 2.16-4.032c.616-1.2 1.192-2.416 1.76-3.64a98.48 98.48 0 0 0 2.664-6.28c.592-1.528 1.176-3.064 1.688-4.616a91.494 91.494 0 0 0 1.272-4.136zm-13.04-15.208c-.168 1.112-.296 2.232-.512 3.328-.408 2.096-.936 4.16-1.496 6.216-.168.608-.296 1.224-.472 1.832a92.145 92.145 0 0 1-2.272 6.616c-.16.416-.296.848-.464 1.264-.88 2.192-1.872 4.336-2.928 6.456-.152.312-.296.624-.448.936h-30.216c3.848-9.92 6.584-20.68 7.512-32H463.6c-.016.136-.008.28-.024.416-.16 1.664-.44 3.304-.696 4.936zm-165.616 25.728c-1.056-2.12-2.056-4.272-2.936-6.464-.16-.408-.296-.832-.456-1.24a87.778 87.778 0 0 1-2.28-6.64c-.176-.6-.304-1.216-.472-1.824-.56-2.064-1.088-4.136-1.496-6.232-.208-1.088-.336-2.2-.504-3.296-.256-1.648-.536-3.296-.704-4.952-.016-.136-.008-.28-.024-.416h32.016c.928 11.32 3.664 22.08 7.512 32h-30.216c-.144-.312-.288-.632-.44-.936zM168.656 160c-5.472-9.424-8.656-20.336-8.656-32 0-35.288 28.712-64 64-64s64 28.712 64 64-28.712 64-64 64c-16.168 0-30.912-6.072-42.192-16H216v-16h-47.344zM128 120V88h16l.016 32H128zm16 16c.136 0 .264-.04.4-.04.84 8.472 3.04 16.544 6.328 24.04H144v-24zm256.52 155.544a85.29 85.29 0 0 1 5.232 1.744c.792.288 1.584.56 2.368.872 1.832.72 3.632 1.52 5.416 2.368.632.304 1.272.6 1.896.912a85.3 85.3 0 0 1 5.424 2.992c.52.312 1.04.624 1.552.944a94.379 94.379 0 0 1 5.336 3.6 90.551 90.551 0 0 1 6.408 5.144c3.456 3.056 6.736 6.32 9.68 9.88h-27.136c-6.304-11.776-13.56-21.736-19.888-29.392l.624.144c1.032.256 2.072.496 3.088.792zm57.144 51.848c.168.416.304.848.464 1.264.84 2.184 1.616 4.384 2.272 6.616.176.6.304 1.224.472 1.832.56 2.056 1.088 4.128 1.496 6.216.208 1.096.336 2.224.512 3.328.256 1.64.536 3.272.696 4.928.016.136.008.28.024.416h-32.016c-.928-11.32-3.664-22.08-7.512-32h30.216c.16.304.296.624.448.936 1.056 2.128 2.048 4.272 2.928 6.464zM288.408 368c.016-.136.008-.28.024-.416.16-1.664.44-3.304.704-4.952.168-1.08.288-2.184.496-3.256.04-.224.112-.44.152-.656.384-1.888.84-3.76 1.352-5.616.144-.536.264-1.08.416-1.616.168-.568.384-1.128.56-1.688a91.206 91.206 0 0 1 1.768-5.16c.096-.248.176-.504.28-.752.352-.888.768-1.752 1.152-2.632.624-1.448 1.256-2.904 1.96-4.32.056-.12.112-.24.168-.352.096-.192.216-.384.32-.576h30.176c-3.848 9.92-6.584 20.68-7.512 32h-32.016V368zM354 290.896c.008 0 .008-.008.016-.008.4-.104.792-.208 1.192-.304-6.328 7.664-13.592 17.632-19.904 29.416h-26.936c.592-.712 1.144-1.448 1.752-2.144.264-.296.528-.584.792-.872 5.632-6.2 12.032-11.52 19.048-15.832.264-.16.52-.32.784-.48A87.342 87.342 0 0 1 354 290.896zM368 320h-14.12c4.712-7.656 9.696-14.336 14.12-19.688V320zm16-19.688c4.424 5.352 9.408 12.032 14.12 19.688H384v-19.688zM345.328 336H368v32h-31.576c1.12-11.352 4.472-22.168 8.904-32zM384 336h22.672c4.432 9.832 7.784 20.648 8.904 32H384v-32zm-42.192-58.104c-1.816.632-3.632 1.248-5.4 1.976-1.328.552-2.608 1.184-3.912 1.784l-.016.008-.744.336c-1.432.68-2.872 1.336-4.264 2.08-1.28.68-2.52 1.432-3.768 2.168-1.576.92-3.152 1.84-4.672 2.84-1.224.808-2.4 1.672-3.592 2.528-1.456 1.048-2.912 2.104-4.312 3.224-1.152.92-2.264 1.896-3.376 2.864a98.712 98.712 0 0 0-3.952 3.592 95.35 95.35 0 0 0-2.544 2.544c-.056.056-.112.096-.168.152H104v-24c0-39.704 32.296-72 72-72h96c38.736 0 70.424 30.744 71.944 69.112-.728.24-1.424.544-2.136.792zM336.424 384H368v32h-22.672c-4.432-9.832-7.784-20.648-8.904-32zM368 432v19.688c-4.424-5.352-9.408-12.032-14.12-19.688H368zm16 0h14.12c-4.712 7.656-9.696 14.336-14.12 19.688V432zm0-16v-32h31.576c-1.12 11.352-4.472 22.168-8.904 32H384zM40 16h368c13.232 0 24 10.768 24 24v248.464c-.968-.624-1.976-1.168-2.96-1.752a105.47 105.47 0 0 0-6.864-3.752c-1.328-.664-2.648-1.328-4-1.928a105.234 105.234 0 0 0-4.152-1.72 98.341 98.341 0 0 0-4.44-1.632c-1.28-.44-2.544-.896-3.84-1.28-2.64-.792-5.32-1.488-8.024-2.064-.952-.2-1.92-.344-2.872-.52a100.263 100.263 0 0 0-6.576-1.008c-.968-.112-1.936-.232-2.92-.312-3.104-.304-6.216-.496-9.352-.496-3.504 0-6.968.184-10.384.528-1.12.112-2.208.336-3.312.48-.88.12-1.76.248-2.632.384C356.264 227.952 318.296 192 272 192h-.208C291.296 177.4 304 154.184 304 128c0-44.112-35.888-80-80-80-26.92 0-50.728 13.408-65.232 33.856C156.352 76.08 150.648 72 144 72h-16c-8.824 0-16 7.176-16 16v32c0 8.824 7.176 16 16 16v32c0 4.424 3.576 8 8 8h24.152a80.666 80.666 0 0 0 16.048 16h-.2c-48.52 0-88 39.48-88 88v24H16V40c0-13.232 10.768-24 24-24zM16 344v-24h272.464c-.064.096-.104.2-.168.296a99.957 99.957 0 0 0-2.16 3.552c-.032.056-.08.088-.112.144-.144.248-.264.504-.4.752a86.704 86.704 0 0 0-1.952 3.6 101.3 101.3 0 0 0-2.312 4.784 109.024 109.024 0 0 0-1.824 4.2c-.56 1.4-1.08 2.808-1.584 4.232-.136.384-.296.752-.424 1.136-.088.264-.168.536-.256.8a108.702 108.702 0 0 0-1.008 3.24 100.116 100.116 0 0 0-1.08 4.04c-.152.592-.28 1.192-.416 1.784-.256 1.12-.552 2.232-.776 3.368-.048.248-.08.496-.12.736-.208 1.104-.384 2.224-.56 3.344a99.618 99.618 0 0 0-.568 4.072c-.096.848-.184 1.696-.264 2.552-.04.456-.136.896-.168 1.352H40C26.768 368 16 357.232 16 344zm292.168 88h27.136c6.312 11.784 13.568 21.752 19.904 29.416-18.712-4.56-35.136-15.024-47.04-29.416zm88.624 29.416c6.328-7.664 13.592-17.632 19.904-29.416h27.136c-11.904 14.392-28.328 24.856-47.04 29.416z" fill="#143446"/></svg>