<?xml version="1.0" encoding="iso-8859-1"?>
<!-- Generator: Adobe Illustrator 19.0.0, SVG Export Plug-In . SVG Version: 6.00 Build 0)  -->
<svg version="1.1" id="Capa_1" xmlns="http://www.w3.org/2000/svg" xmlns:xlink="http://www.w3.org/1999/xlink" x="0px" y="0px"
	 viewBox="0 0 480 480" style="enable-background:new 0 0 480 480;" xml:space="preserve">
<path style="fill:#68E8BB;" d="M376,376v-48v-48c-8.304,0-16.32,1.168-24,3.144c-9.296,2.4-18.04,6.144-26.008,11.024
	c0,0,0,0-0.008,0c-7.976,4.88-15.176,10.896-21.392,17.824c-1.864,2.08-3.64,4.248-5.328,6.488
	c-0.072,0.088-0.136,0.184-0.208,0.272c-1.6,2.144-3.112,4.36-4.528,6.64c-0.16,0.256-0.32,0.52-0.48,0.784
	c-0.36,0.592-0.664,1.216-1.016,1.816h-0.088c-0.264,0.456-0.448,0.96-0.704,1.416c-0.624,1.112-1.288,2.2-1.864,3.336
	c-0.248,0.496-0.488,1.008-0.728,1.512c-0.56,1.152-1.048,2.336-1.568,3.512c-0.272,0.624-0.568,1.232-0.832,1.864
	c-0.128,0.312-0.288,0.608-0.408,0.92c-0.32,0.8-0.592,1.624-0.896,2.44c-0.704,1.912-1.392,3.84-1.976,5.808
	c-0.152,0.52-0.288,1.04-0.432,1.56c-0.136,0.496-0.232,1.008-0.36,1.504c-0.048,0.168-0.08,0.344-0.128,0.52
	c-0.432,1.688-0.88,3.376-1.224,5.104c-0.264,1.32-0.416,2.68-0.624,4.016c-0.136,0.904-0.288,1.792-0.4,2.704
	c-0.096,0.792-0.24,1.56-0.32,2.352c-0.304,3.112-0.48,6.256-0.48,9.44c0,4,0.312,7.92,0.8,11.792
	c0.12,0.976,0.296,1.936,0.44,2.912c0.488,3.136,1.104,6.232,1.896,9.264c0.176,0.688,0.336,1.384,0.528,2.064
	c0.984,3.504,2.232,6.888,3.592,10.216c0.288,0.696,0.568,1.384,0.872,2.072c1.424,3.264,2.976,6.464,4.744,9.528
	c0.032,0.048,0.048,0.104,0.08,0.152h0.016c16.584,28.68,47.52,48,83.032,48v-48V376z"/>
<path style="fill:#17B2B0;" d="M470.76,361.296c-0.488-3.136-1.104-6.232-1.896-9.264c-0.176-0.688-0.336-1.384-0.528-2.064
	c-1.008-3.592-2.28-7.072-3.68-10.472c-0.184-0.44-0.344-0.88-0.528-1.32c-1.368-3.176-2.912-6.248-4.6-9.24
	c-0.176-0.304-0.296-0.64-0.472-0.944h-0.08c-5.088-8.768-11.472-16.68-18.976-23.408c-2.088-1.872-4.248-3.64-6.488-5.328
	c-0.088-0.072-0.184-0.136-0.272-0.208c-2.144-1.6-4.352-3.112-6.64-4.528c-0.256-0.16-0.52-0.32-0.784-0.48
	c-2.144-1.304-4.32-2.536-6.568-3.672c-0.496-0.248-1.008-0.488-1.512-0.728c-2.064-1-4.152-1.952-6.296-2.808
	c-0.8-0.32-1.624-0.592-2.44-0.896c-1.92-0.704-3.832-1.392-5.808-1.976c-1.176-0.344-2.384-0.616-3.584-0.92
	c-1.696-0.432-3.376-0.888-5.104-1.224c-1.688-0.328-3.408-0.544-5.12-0.784c-1.32-0.184-2.616-0.432-3.952-0.568
	C382.328,280.176,379.184,280,376,280v48v48v48v48c35.512,0,66.448-19.32,83.032-48h0.016c0.032-0.048,0.048-0.104,0.08-0.152
	c1.768-3.064,3.32-6.256,4.744-9.528c0.296-0.688,0.584-1.376,0.872-2.072c1.36-3.328,2.608-6.712,3.592-10.216
	c0.192-0.68,0.352-1.376,0.528-2.064c0.792-3.032,1.408-6.12,1.896-9.264c0.152-0.968,0.32-1.928,0.44-2.912
	C471.688,383.92,472,380,472,376s-0.312-7.92-0.8-11.792C471.08,363.232,470.912,362.264,470.76,361.296z"/>
<g>
	<path style="fill:#FFA244;" d="M352,280c0-44.184-35.816-80-80-80h-48h-48c-44.184,0-80,35.816-80,80v32h208.592
		c6.216-6.936,13.424-12.944,21.392-17.824c0,0,0,0,0.008,0c7.984-4.888,16.712-8.624,26.008-11.024l0,0L352,280L352,280z"/>
	<path style="fill:#FFA244;" d="M296,128c0-39.768-32.232-72-72-72s-72,32.232-72,72c0,14.808,4.48,28.56,12.144,40
		c12.92,19.288,34.896,32,59.856,32C263.768,200,296,167.768,296,128z"/>
</g>
<path style="fill:#17B2B0;" d="M128,128h8h8c4.416,0,8-3.584,8-8V88c0-4.416-3.584-8-8-8h-16c-4.416,0-8,3.584-8,8v32
	C120,124.416,123.584,128,128,128z"/>
<path style="fill:#DCDCDC;" d="M280.8,364.208c0.112-0.912,0.264-1.8,0.4-2.704c0.208-1.344,0.36-2.696,0.624-4.016
	c0.344-1.728,0.792-3.408,1.224-5.104c0.04-0.176,0.08-0.344,0.128-0.52c0.128-0.496,0.224-1.008,0.36-1.504
	c0.144-0.52,0.28-1.04,0.432-1.56c0.584-1.968,1.272-3.896,1.976-5.808c0.296-0.816,0.576-1.64,0.896-2.44
	c0.128-0.312,0.28-0.608,0.408-0.92c0.264-0.632,0.56-1.24,0.832-1.864c0.512-1.176,1.008-2.36,1.568-3.512
	c0.24-0.504,0.48-1.016,0.728-1.512c0.576-1.136,1.24-2.224,1.864-3.336c0.256-0.456,0.44-0.96,0.704-1.416h0.088
	c0.352-0.6,0.656-1.224,1.016-1.816c0.16-0.264,0.312-0.528,0.48-0.784c1.424-2.272,2.928-4.496,4.528-6.64
	c0.072-0.088,0.136-0.184,0.208-0.272c1.688-2.24,3.456-4.408,5.328-6.488H96v-32c0-44.184,35.816-80,80-80h48
	c-24.96,0-46.944-12.712-59.856-32C156.48,156.56,152,142.808,152,128c0-39.768,32.232-72,72-72s72,32.232,72,72s-32.232,72-72,72
	h48c44.184,0,80,35.816,80,80v3.144l0,0c7.68-1.976,15.696-3.144,24-3.144c3.184,0,6.328,0.176,9.44,0.48
	c1.336,0.128,2.632,0.376,3.952,0.568c1.712,0.24,3.44,0.456,5.12,0.784c1.728,0.336,3.408,0.792,5.104,1.224
	c1.2,0.304,2.408,0.576,3.584,0.92c1.976,0.584,3.888,1.272,5.808,1.976c0.816,0.296,1.64,0.576,2.44,0.896
	c2.144,0.856,4.232,1.808,6.296,2.808c0.504,0.24,1.016,0.48,1.512,0.728c2.248,1.136,4.424,2.368,6.568,3.672
	c0.264,0.16,0.528,0.312,0.784,0.48c2.28,1.416,4.488,2.928,6.64,4.528c0.088,0.072,0.184,0.136,0.272,0.208
	c2.24,1.688,4.408,3.456,6.488,5.328V40c0-17.672-14.328-32-32-32H40C22.328,8,8,22.328,8,40v272v32c0,17.672,14.328,32,32,32h240
	c0-3.184,0.176-6.328,0.48-9.44C280.552,365.768,280.704,365,280.8,364.208z M120,88c0-4.416,3.584-8,8-8h16c4.416,0,8,3.584,8,8v32
	c0,4.416-3.584,8-8,8h-8h-8c-4.416,0-8-3.584-8-8V88z"/>
<path style="fill:#143446;" d="M475.92,404.552c0.488-1.696,0.92-3.408,1.32-5.128c0.256-1.12,0.552-2.232,0.776-3.368
	c0.536-2.696,0.928-5.424,1.248-8.152c0.104-0.896,0.192-1.784,0.272-2.688C479.808,382.16,480,379.088,480,376
	s-0.192-6.16-0.464-9.216c-0.08-0.896-0.168-1.792-0.272-2.688c-0.32-2.736-0.712-5.456-1.248-8.152
	c-0.224-1.136-0.52-2.248-0.776-3.368c-0.4-1.72-0.832-3.424-1.32-5.128c-0.4-1.384-0.808-2.76-1.256-4.128
	c-0.52-1.552-1.104-3.088-1.688-4.616c-0.824-2.128-1.712-4.224-2.664-6.28c-0.568-1.224-1.144-2.44-1.76-3.64
	c-0.696-1.36-1.408-2.712-2.16-4.032c-0.144-0.248-0.264-0.504-0.4-0.752c-0.072-0.12-0.176-0.216-0.256-0.336
	c-4.872-8.312-10.824-15.896-17.72-22.528V40c0-22.056-17.944-40-40-40H40C17.944,0,0,17.944,0,40v272v32c0,22.056,17.944,40,40,40
	h232.344c0.032,0.408,0.088,0.816,0.12,1.216c0.08,0.896,0.168,1.792,0.272,2.688c0.32,2.736,0.712,5.456,1.248,8.152
	c0.224,1.136,0.52,2.248,0.776,3.368c0.4,1.72,0.832,3.424,1.32,5.128c0.4,1.384,0.808,2.76,1.256,4.128
	c0.52,1.552,1.104,3.088,1.688,4.616c0.824,2.128,1.712,4.224,2.664,6.28c0.568,1.224,1.144,2.44,1.76,3.64
	c0.696,1.36,1.408,2.712,2.16,4.032c0.144,0.248,0.264,0.504,0.4,0.752c0.072,0.12,0.176,0.216,0.256,0.336
	C304.344,459.184,337.752,480,376,480s71.656-20.816,89.72-51.656c0.08-0.12,0.184-0.208,0.256-0.336
	c0.144-0.248,0.264-0.504,0.4-0.752c0.752-1.328,1.464-2.672,2.16-4.032c0.616-1.2,1.192-2.416,1.76-3.64
	c0.96-2.064,1.848-4.152,2.664-6.28c0.592-1.528,1.176-3.064,1.688-4.616C475.112,407.32,475.52,405.944,475.92,404.552z
	 M462.88,389.344c-0.168,1.112-0.296,2.232-0.512,3.328c-0.408,2.096-0.936,4.16-1.496,6.216c-0.168,0.608-0.296,1.224-0.472,1.832
	c-0.664,2.232-1.44,4.44-2.272,6.616c-0.16,0.416-0.296,0.848-0.464,1.264c-0.88,2.192-1.872,4.336-2.928,6.456
	c-0.152,0.312-0.296,0.624-0.448,0.936h-30.216c3.848-9.92,6.584-20.68,7.512-32H463.6c-0.016,0.136-0.008,0.28-0.024,0.416
	C463.416,386.072,463.136,387.712,462.88,389.344z M297.264,415.072c-1.056-2.12-2.056-4.272-2.936-6.464
	c-0.16-0.408-0.296-0.832-0.456-1.24c-0.84-2.184-1.616-4.392-2.28-6.64c-0.176-0.6-0.304-1.216-0.472-1.824
	c-0.56-2.064-1.088-4.136-1.496-6.232c-0.208-1.088-0.336-2.2-0.504-3.296c-0.256-1.648-0.536-3.296-0.704-4.952
	c-0.016-0.136-0.008-0.28-0.024-0.416h32.016c0.928,11.32,3.664,22.08,7.512,32h-30.216
	C297.56,415.696,297.416,415.376,297.264,415.072z M168.656,160c-5.472-9.424-8.656-20.336-8.656-32c0-35.288,28.712-64,64-64
	s64,28.712,64,64s-28.712,64-64,64c-16.168,0-30.912-6.072-42.192-16H216v-16H168.656z M128,120V88h16l0.016,32H128z M144,136
	c0.136,0,0.264-0.04,0.4-0.04c0.84,8.472,3.04,16.544,6.328,24.04H144V136z M400.52,291.544c1.768,0.52,3.504,1.112,5.232,1.744
	c0.792,0.288,1.584,0.56,2.368,0.872c1.832,0.72,3.632,1.52,5.416,2.368c0.632,0.304,1.272,0.6,1.896,0.912
	c1.84,0.928,3.648,1.928,5.424,2.992c0.52,0.312,1.04,0.624,1.552,0.944c1.816,1.136,3.592,2.336,5.336,3.6
	c0.432,0.32,0.864,0.64,1.288,0.96c1.752,1.328,3.456,2.72,5.12,4.184c3.456,3.056,6.736,6.32,9.68,9.88h-27.136
	c-6.304-11.776-13.56-21.736-19.888-29.392c0.208,0.048,0.416,0.096,0.624,0.144C398.464,291.008,399.504,291.248,400.52,291.544z
	 M457.664,343.392c0.168,0.416,0.304,0.848,0.464,1.264c0.84,2.184,1.616,4.384,2.272,6.616c0.176,0.6,0.304,1.224,0.472,1.832
	c0.56,2.056,1.088,4.128,1.496,6.216c0.208,1.096,0.336,2.224,0.512,3.328c0.256,1.64,0.536,3.272,0.696,4.928
	c0.016,0.136,0.008,0.28,0.024,0.416h-32.016c-0.928-11.32-3.664-22.08-7.512-32h30.216c0.16,0.304,0.296,0.624,0.448,0.936
	C455.792,339.056,456.784,341.2,457.664,343.392z M288.408,368c0.016-0.136,0.008-0.28,0.024-0.416
	c0.16-1.664,0.44-3.304,0.704-4.952c0.168-1.08,0.288-2.184,0.496-3.256c0.04-0.224,0.112-0.44,0.152-0.656
	c0.384-1.888,0.84-3.76,1.352-5.616c0.144-0.536,0.264-1.08,0.416-1.616c0.168-0.568,0.384-1.128,0.56-1.688
	c0.544-1.736,1.12-3.456,1.768-5.16c0.096-0.248,0.176-0.504,0.28-0.752c0.352-0.888,0.768-1.752,1.152-2.632
	c0.624-1.448,1.256-2.904,1.96-4.32c0.056-0.12,0.112-0.24,0.168-0.352c0.096-0.192,0.216-0.384,0.32-0.576h30.176
	c-3.848,9.92-6.584,20.68-7.512,32h-32.016V368z M354,290.896c0.008,0,0.008-0.008,0.016-0.008c0.4-0.104,0.792-0.208,1.192-0.304
	c-6.328,7.664-13.592,17.632-19.904,29.416h-26.936c0.592-0.712,1.144-1.448,1.752-2.144c0.264-0.296,0.528-0.584,0.792-0.872
	c5.632-6.2,12.032-11.52,19.048-15.832c0.264-0.16,0.52-0.32,0.784-0.48C337.944,296.336,345.752,293.024,354,290.896z M368,320
	h-14.12c4.712-7.656,9.696-14.336,14.12-19.688V320z M384,300.312c4.424,5.352,9.408,12.032,14.12,19.688H384V300.312z M345.328,336
	H368v32h-31.576C337.544,356.648,340.896,345.832,345.328,336z M384,336h22.672c4.432,9.832,7.784,20.648,8.904,32H384V336z
	 M341.808,277.896c-1.816,0.632-3.632,1.248-5.4,1.976c-1.328,0.552-2.608,1.184-3.912,1.784l-0.016,0.008
	c-0.248,0.112-0.496,0.224-0.744,0.336c-1.432,0.68-2.872,1.336-4.264,2.08c-1.28,0.68-2.52,1.432-3.768,2.168
	c-1.576,0.92-3.152,1.84-4.672,2.84c-1.224,0.808-2.4,1.672-3.592,2.528c-1.456,1.048-2.912,2.104-4.312,3.224
	c-1.152,0.92-2.264,1.896-3.376,2.864c-1.344,1.168-2.672,2.352-3.952,3.592c-0.864,0.832-1.712,1.68-2.544,2.544
	c-0.056,0.056-0.112,0.096-0.168,0.152H104v-24c0-39.704,32.296-72,72-72h96c38.736,0,70.424,30.744,71.944,69.112
	C343.216,277.344,342.52,277.648,341.808,277.896z M336.424,384H368v32h-22.672C340.896,406.168,337.544,395.352,336.424,384z
	 M368,432v19.688c-4.424-5.352-9.408-12.032-14.12-19.688H368z M384,432h14.12c-4.712,7.656-9.696,14.336-14.12,19.688V432z
	 M384,416v-32h31.576c-1.12,11.352-4.472,22.168-8.904,32H384z M40,16h368c13.232,0,24,10.768,24,24v248.464
	c-0.968-0.624-1.976-1.168-2.96-1.752c-2.24-1.336-4.528-2.584-6.864-3.752c-1.328-0.664-2.648-1.328-4-1.928
	c-1.368-0.608-2.752-1.168-4.152-1.72c-1.464-0.584-2.952-1.12-4.44-1.632c-1.28-0.44-2.544-0.896-3.84-1.28
	c-2.64-0.792-5.32-1.488-8.024-2.064c-0.952-0.2-1.92-0.344-2.872-0.52c-2.176-0.408-4.368-0.744-6.576-1.008
	c-0.968-0.112-1.936-0.232-2.92-0.312C382.248,272.192,379.136,272,376,272c-3.504,0-6.968,0.184-10.384,0.528
	c-1.12,0.112-2.208,0.336-3.312,0.48c-0.88,0.12-1.76,0.248-2.632,0.384C356.264,227.952,318.296,192,272,192h-0.208
	C291.296,177.4,304,154.184,304,128c0-44.112-35.888-80-80-80c-26.92,0-50.728,13.408-65.232,33.856
	C156.352,76.08,150.648,72,144,72h-16c-8.824,0-16,7.176-16,16v32c0,8.824,7.176,16,16,16v32c0,4.424,3.576,8,8,8h24.152
	c4.576,6.064,9.968,11.448,16.048,16H176c-48.52,0-88,39.48-88,88v24H16V40C16,26.768,26.768,16,40,16z M16,344v-24h80h192.464
	c-0.064,0.096-0.104,0.2-0.168,0.296c-0.744,1.168-1.464,2.352-2.16,3.552c-0.032,0.056-0.08,0.088-0.112,0.144
	c-0.144,0.248-0.264,0.504-0.4,0.752c-0.68,1.184-1.328,2.384-1.952,3.6c-0.816,1.568-1.576,3.168-2.312,4.784
	c-0.632,1.392-1.248,2.776-1.824,4.2c-0.56,1.4-1.08,2.808-1.584,4.232c-0.136,0.384-0.296,0.752-0.424,1.136
	c-0.088,0.264-0.168,0.536-0.256,0.8c-0.352,1.072-0.688,2.152-1.008,3.24c-0.392,1.336-0.744,2.688-1.08,4.04
	c-0.152,0.592-0.28,1.192-0.416,1.784c-0.256,1.12-0.552,2.232-0.776,3.368c-0.048,0.248-0.08,0.496-0.12,0.736
	c-0.208,1.104-0.384,2.224-0.56,3.344c-0.216,1.352-0.408,2.712-0.568,4.072c-0.096,0.848-0.184,1.696-0.264,2.552
	c-0.04,0.456-0.136,0.896-0.168,1.352H40C26.768,368,16,357.232,16,344z M308.168,432h27.136
	c6.312,11.784,13.568,21.752,19.904,29.416C336.496,456.856,320.072,446.392,308.168,432z M396.792,461.416
	c6.328-7.664,13.592-17.632,19.904-29.416h27.136C431.928,446.392,415.504,456.856,396.792,461.416z"/>
<g>
</g>
<g>
</g>
<g>
</g>
<g>
</g>
<g>
</g>
<g>
</g>
<g>
</g>
<g>
</g>
<g>
</g>
<g>
</g>
<g>
</g>
<g>
</g>
<g>
</g>
<g>
</g>
<g>
</g>
</svg>
