<svg width="65" height="53" viewBox="0 0 65 53" xmlns="http://www.w3.org/2000/svg"><title>branding</title><g fill="none" fill-rule="evenodd"><circle fill="#FFAF1D" cx="38" cy="15" r="5"/><circle fill="#008215" cx="24" cy="11" r="5"/><circle fill="#00AAE3" cx="12" cy="34" r="5"/><circle fill="#DE437D" cx="13" cy="20" r="5"/><path d="M63.688 1.703a.902.902 0 0 0-1.573-.192c-1.14 1.598-2.635 2.13-4.367 2.747-1.397.498-2.842 1.012-4.403 2.132-2.208 1.585-3.217 3.746-2.714 5.794l-.054.069a29.623 29.623 0 0 0-2.983-3.68C42.64 3.407 35.72.3 28.607.05a27.186 27.186 0 0 0-.947-.016c-7.944 0-15.548 3.55-20.861 9.742-5.286 6.16-7.628 14.178-6.427 22 .1.653.226 1.314.374 1.963 1.953 8.599 6.943 15.14 13.69 17.946 1.662.692 3.34 1.042 4.984 1.042 4.086 0 7.656-2.185 9.793-5.996.812-1.45 1.336-2.95 1.557-4.457.13-.89.041-1.78-.045-2.64-.089-.888-.173-1.726-.039-2.57.308-1.934 1.66-3.09 3.615-3.09.556 0 1.125.092 1.693.273a88.368 88.368 0 0 0-1.796 3.462c-1.118 2.287-1.89 4.18-2.293 5.628-.249.893-.91 3.265.702 4.384.512.355 1.16.48 1.836.355.609-.113 2.46-.457 7.723-6.448a113.199 113.199 0 0 0 4.526-5.531c4.084-1.375 7.262-4.798 8.103-8.732.21-.983.298-2.035.26-3.128 1.53-2.363 2.87-4.568 4.22-6.938.026-.046.052-.095.077-.145 1.959-.536 3.646-2.06 4.636-4.192 1.446-3.112 1.34-7.11-.3-11.259zM41.61 16.435a3.829 3.829 0 0 1-3.258 1.797c-.723 0-1.43-.204-2.045-.591a3.82 3.82 0 0 1-1.701-2.403 3.82 3.82 0 0 1 .496-2.9 3.83 3.83 0 0 1 3.258-1.798c.723 0 1.43.205 2.045.592a3.82 3.82 0 0 1 1.701 2.402 3.822 3.822 0 0 1-.496 2.901zm4.992 6.968c1.944-2.864 4-5.712 5.953-8.245.317.286.67.565 1.054.831a8.1 8.1 0 0 0 1.979 1.016c-1.649 2.82-3.422 5.613-5.568 8.775-3.527 5.197-7.195 10.024-10.327 13.592-1.75 1.994-3.28 3.533-4.46 4.486.455-1.457 1.326-3.456 2.537-5.825 2.165-4.235 5.302-9.43 8.832-14.63zm-34.136-.024c-.723 0-1.43-.205-2.046-.592a3.82 3.82 0 0 1-1.7-2.402 3.82 3.82 0 0 1 .496-2.902 3.828 3.828 0 0 1 3.257-1.797c.724 0 1.431.205 2.046.592a3.85 3.85 0 0 1 1.205 5.304 3.83 3.83 0 0 1-3.258 1.797zm-4.031 8.468a3.829 3.829 0 0 1 3.257-1.797c.724 0 1.43.205 2.046.592a3.82 3.82 0 0 1 1.7 2.402 3.819 3.819 0 0 1-.496 2.901 3.829 3.829 0 0 1-3.257 1.797c-.723 0-1.43-.205-2.046-.592a3.82 3.82 0 0 1-1.7-2.402 3.823 3.823 0 0 1 .496-2.901zM20.75 9.007a3.829 3.829 0 0 1 3.258-1.797c.723 0 1.43.204 2.045.591a3.85 3.85 0 0 1 1.205 5.304 3.83 3.83 0 0 1-3.258 1.797c-.723 0-1.43-.205-2.045-.592a3.82 3.82 0 0 1-1.7-2.402 3.82 3.82 0 0 1 .495-2.901z" fill="#4D4D4D" fill-rule="nonzero"/></g></svg>