<svg width="82" height="82" viewBox="0 0 82 82" xmlns="http://www.w3.org/2000/svg"><title>classroom</title><g fill="none" fill-rule="evenodd"><path d="M21.621 0c-5.342 0-9.61 4.485-9.61 9.77 0 5.298 4.311 9.609 9.61 9.609 5.299 0 9.61-4.31 9.61-9.61C31.23 4.482 26.957 0 21.62 0zm0 14.574a4.81 4.81 0 0 1-4.805-4.804c0-2.692 2.2-4.965 4.805-4.965 2.605 0 4.805 2.273 4.805 4.965a4.81 4.81 0 0 1-4.805 4.804z" fill="#4D4D4D" fill-rule="nonzero"/><path d="M37 2h41v33c-13.898.843-22.898.843-27 0-2.925-.601-1.808-6.671-4-7-6.803-1.02-9.803-.687-9 1L37 2z" fill="#FFF"/><path fill="#00AAE3" d="M44 10h12v10H44z"/><path fill="#FFAF1D" d="M62 10h12v10H62z"/><path d="M74.793 0H40.84c-3.974 0-7.207 3.233-7.207 7.207v16.394l-2.112-2.11a7.16 7.16 0 0 0-5.095-2.112H12.01C5.389 19.379 0 24.767 0 31.39v14.414c0 3.974 3.233 7.207 7.207 7.207.842 0 1.65-.145 2.402-.412v22.193c0 3.974 3.233 7.207 7.207 7.207a7.178 7.178 0 0 0 4.805-1.84A7.178 7.178 0 0 0 26.426 82c3.974 0 7.207-3.233 7.207-7.207v-31.8a7.235 7.235 0 0 0 5.625-.35l8.09-4.045h27.445c3.974 0 7.207-3.233 7.207-7.207V7.207C82 3.233 78.767 0 74.793 0zM46.719 33.54l-9.606 4.803c-.902.45-2.021.306-2.776-.45l-1.408-1.407c-1.485-1.485-4.094-.475-4.1 1.692l-.001.007v36.608a2.405 2.405 0 0 1-2.402 2.402 2.405 2.405 0 0 1-2.403-2.402V50.609a2.402 2.402 0 0 0-4.804 0v24.184a2.405 2.405 0 0 1-2.403 2.402 2.405 2.405 0 0 1-2.402-2.402V45.805 31.39a2.402 2.402 0 0 0-4.805 0v14.414a2.405 2.405 0 0 1-2.402 2.402 2.405 2.405 0 0 1-2.402-2.402V31.39c0-3.974 3.233-7.207 7.207-7.207h14.414c.641 0 1.244.25 1.698.704l7.16 7.16a2.403 2.403 0 0 0 2.773.45l6.514-3.257a2.396 2.396 0 0 1 3.223 1.075 2.4 2.4 0 0 1-1.075 3.224zm30.476-2.15a2.405 2.405 0 0 1-2.402 2.403H52.438l.045-.123a7.18 7.18 0 0 0 .317-3.171l13.138-6.569a2.402 2.402 0 1 0-2.15-4.297L50.653 26.2a7.2 7.2 0 0 0-8.23-1.257l-3.984 1.992V7.207a2.405 2.405 0 0 1 2.402-2.402h33.953a2.405 2.405 0 0 1 2.402 2.402v24.184z" fill="#4D4D4D" fill-rule="nonzero"/></g></svg>