<svg width="62" height="62" viewBox="0 0 62 62" xmlns="http://www.w3.org/2000/svg"><title>domain</title><g fill="none" fill-rule="evenodd"><path fill="#FFF" d="M2 7h60v55H2z"/><path fill="#FFAF1D" d="M2 1h60v8H2z"/><path d="M58.9 0H3.1C1.39 0 0 1.39 0 3.1V58.9C0 60.61 1.39 62 3.1 62h55.8c1.71 0 3.1-1.39 3.1-3.1V3.1C62 1.39 60.61 0 58.9 0zM2.067 3.1c0-.57.464-1.033 1.033-1.033h55.8c.57 0 1.033.464 1.033 1.033v5.167H2.067V3.1zm57.866 55.8c0 .57-.464 1.033-1.033 1.033H3.1c-.57 0-1.033-.464-1.033-1.033V10.333h57.866V58.9z" fill="#000" fill-rule="nonzero"/><circle fill="#000" fill-rule="nonzero" cx="5.167" cy="5.167" r="1.033"/><circle fill="#000" fill-rule="nonzero" cx="9.3" cy="5.167" r="1.033"/><circle fill="#000" fill-rule="nonzero" cx="13.433" cy="5.167" r="1.033"/><circle fill="#00AAE3" fill-rule="nonzero" cx="46.5" cy="32.033" r="1.033"/><circle fill="#00AAE3" fill-rule="nonzero" cx="46.5" cy="38.233" r="1.033"/><path d="M15.5 32.033h2.067v7.234a1.034 1.034 0 0 0 2.066 0v-7.234H21.7a1.034 1.034 0 0 0 0-2.066h-6.2a1.034 1.034 0 0 0 0 2.066zM25.833 32.033H27.9v7.234a1.034 1.034 0 0 0 2.067 0v-7.234h2.066a1.034 1.034 0 0 0 0-2.066h-6.2a1.034 1.034 0 0 0 0 2.066zM36.167 40.3c.57 0 1.033-.463 1.033-1.033v-3.1h2.067c1.709 0 3.1-1.391 3.1-3.1 0-1.71-1.391-3.1-3.1-3.1h-3.1c-.57 0-1.034.463-1.034 1.033v8.267c0 .57.463 1.033 1.034 1.033zm4.133-7.233c0 .57-.464 1.033-1.033 1.033H37.2v-2.067h2.067c.57 0 1.033.464 1.033 1.034zM5.167 40.3c.57 0 1.033-.463 1.033-1.033v-3.1h4.133v3.1a1.034 1.034 0 0 0 2.067 0V31a1.034 1.034 0 0 0-2.067 0v3.1H6.2V31a1.034 1.034 0 0 0-2.067 0v8.267c0 .57.463 1.033 1.034 1.033zM50.382 40.269a1.034 1.034 0 0 0 1.253-.751l2.067-8.267a1.034 1.034 0 0 0-2.004-.502l-2.067 8.267a1.034 1.034 0 0 0 .751 1.253zM54.516 40.269a1.034 1.034 0 0 0 1.253-.751l2.067-8.267a1.034 1.034 0 0 0-2.005-.502l-2.067 8.267a1.034 1.034 0 0 0 .752 1.253z" fill="#00AAE3" fill-rule="nonzero"/></g></svg>