<?xml version="1.0" encoding="UTF-8"?>
<svg width="86px" height="90px" viewBox="0 0 86 90" version="1.1" xmlns="http://www.w3.org/2000/svg" xmlns:xlink="http://www.w3.org/1999/xlink">
    <!-- Generator: Sketch 48.2 (47327) - http://www.bohemiancoding.com/sketch -->
    <title>organize</title>
    <desc>Created with Sketch.</desc>
    <defs></defs>
    <g id="platform" stroke="none" stroke-width="1" fill="none" fill-rule="evenodd" transform="translate(-316.000000, -2640.000000)">
        <g id="Group-13" transform="translate(-90.000000, 2381.000000)">
            <g id="Group-4" transform="translate(406.000000, 259.000000)">
                <g id="organize">
                    <g id="plan-idea" transform="translate(0.217391, 0.173913)">
                        <rect id="Rectangle-2" fill="#FFFFFF" x="2.08695652" y="0" width="59.826087" height="88.3478261"></rect>
                        <path d="M32.4010988,38.4245273 C25.4041014,38.4245273 19.7117468,44.1250453 19.7117468,51.1314156 C19.7117468,55.8033369 23.3940747,59.5969298 23.8134349,60.0138713 C24.504306,60.7005094 25.414986,62.2210306 25.7103825,63.175249 L26.7238617,67.3304532 C26.9711845,68.3460489 27.8812598,69.061108 28.9267881,69.061108 L35.8745024,69.061108 C36.9197284,69.061108 37.8298037,68.3466536 38.0774288,67.3310579 L39.091815,63.174342 C39.3860022,62.2228447 40.2963798,60.7017189 40.9881579,60.0138713 C41.4078206,59.5969298 45.0892414,55.8030346 45.0892414,51.1314156 C45.0898461,44.124743 39.3977938,38.4245273 32.4010988,38.4245273 Z M37.7908004,56.7980704 C36.5408831,58.0410336 35.2241463,60.2515188 34.7276866,61.9392398 C34.717709,61.9731031 34.7086385,62.0072687 34.7001727,62.0414343 L34.0936574,64.5261515 L30.7082378,64.5261515 L30.1023272,62.042039 C30.0941638,62.0069664 30.0844886,61.972196 30.0742086,61.9374257 C29.5756325,60.2478906 28.2588957,58.0383125 27.0156301,56.8026056 C26.2455431,56.0270764 24.2470057,53.4967043 24.2470057,51.1317179 C24.2470057,46.6257871 27.9048431,42.9600885 32.4010988,42.9600885 C36.8967497,42.9600885 40.5545872,46.6257871 40.5545872,51.1317179 C40.5545872,53.4964019 38.5560498,56.0270764 37.7908004,56.7980704 Z" id="Shape" fill="#FFAF1D" fill-rule="nonzero"></path>
                        <path d="M62.333505,0 L2.46808788,0 C1.21544938,0 0.200458442,1.01499094 0.200458442,2.26762944 L0.200458442,87.0769703 C0.200458442,88.3296088 1.21544938,89.3445998 2.46808788,89.3445998 L62.333505,89.3445998 C63.5861435,89.3445998 64.6011344,88.3296088 64.6011344,87.0769703 L64.6011344,2.26762944 C64.6011344,1.01499094 63.5861435,0 62.333505,0 Z M60.0658756,84.8093409 L4.73571731,84.8093409 L4.73571731,4.53525887 L60.0658756,4.53525887 L60.0658756,84.8093409 Z" id="Shape" fill="#000000" fill-rule="nonzero"></path>
                        <path d="M12.4456574,26.5312644 L52.3559355,26.5312644 C53.608574,26.5312644 54.6235649,25.5162735 54.6235649,24.263635 L54.6235649,12.245199 C54.6235649,10.9925605 53.608574,9.97756952 52.3559355,9.97756952 L12.4456574,9.97756952 C11.1930189,9.97756952 10.178028,10.9925605 10.178028,12.245199 L10.178028,24.263635 C10.178028,25.5162735 11.1933212,26.5312644 12.4456574,26.5312644 Z M14.7132868,14.5128284 L50.088306,14.5128284 L50.088306,21.9960055 L14.7132868,21.9960055 L14.7132868,14.5128284 Z" id="Shape" fill="#000000" fill-rule="nonzero"></path>
                        <path d="M34.8951888,71.1279766 L29.9064041,71.1279766 C28.6537656,71.1279766 27.6387746,72.1429676 27.6387746,73.3956061 C27.6387746,74.6482446 28.6537656,75.6632355 29.9064041,75.6632355 L34.8951888,75.6632355 C36.1478273,75.6632355 37.1628183,74.6482446 37.1628183,73.3956061 C37.1628183,72.1429676 36.1478273,71.1279766 34.8951888,71.1279766 Z" id="Shape" fill="#00AAE3" fill-rule="nonzero"></path>
                        <path d="M32.480617,77.0238132 L32.3212782,77.0238132 C31.0686397,77.0238132 30.0536488,78.0388041 30.0536488,79.2914426 C30.0536488,80.5440811 31.0686397,81.5590721 32.3212782,81.5590721 L32.480617,81.5590721 C33.7332555,81.5590721 34.7482464,80.5440811 34.7482464,79.2914426 C34.7482464,78.0388041 33.7329531,77.0238132 32.480617,77.0238132 Z" id="Shape" fill="#00AAE3" fill-rule="nonzero"></path>
                        <path d="M32.480617,35.7529574 C33.7332555,35.7529574 34.7482464,34.7379665 34.7482464,33.485328 C34.7482464,32.2326895 33.7332555,31.2176986 32.480617,31.2176986 L32.3212782,31.2176986 C31.0686397,31.2176986 30.0536488,32.2326895 30.0536488,33.485328 C30.0536488,34.7379665 31.0686397,35.7529574 32.3212782,35.7529574 L32.480617,35.7529574 Z" id="Shape" fill="#000000" fill-rule="nonzero"></path>
                        <path d="M21.1424698,37.4158857 C21.1424698,36.1632472 20.1274789,35.1482563 18.8748404,35.1482563 L18.7155016,35.1482563 C17.4628631,35.1482563 16.4478722,36.1632472 16.4478722,37.4158857 C16.4478722,38.6685242 17.4631655,39.6835151 18.7155016,39.6835151 L18.8748404,39.6835151 C20.1271765,39.6835151 21.1424698,38.6685242 21.1424698,37.4158857 Z" id="Shape" fill="#000000" fill-rule="nonzero"></path>
                        <path d="M46.0863936,35.1482563 L45.9270548,35.1482563 C44.6744163,35.1482563 43.6594254,36.1632472 43.6594254,37.4158857 C43.6594254,38.6685242 44.6744163,39.6835151 45.9270548,39.6835151 L46.0863936,39.6835151 C47.3390321,39.6835151 48.354023,38.6685242 48.354023,37.4158857 C48.354023,36.1632472 47.3387298,35.1482563 46.0863936,35.1482563 Z" id="Shape" fill="#000000" fill-rule="nonzero"></path>
                        <path d="M51.2263537,46.1840528 L51.0670149,46.1840528 C49.8143764,46.1840528 48.7993855,47.1990438 48.7993855,48.4516823 C48.7993855,49.7043208 49.8143764,50.7193117 51.0670149,50.7193117 L51.2263537,50.7193117 C52.4789922,50.7193117 53.4939831,49.7043208 53.4939831,48.4516823 C53.4939831,47.1990438 52.4786898,46.1840528 51.2263537,46.1840528 Z" id="Shape" fill="#000000" fill-rule="nonzero"></path>
                        <path d="M14.6419321,46.1840528 L14.4825933,46.1840528 C13.2302572,46.1840528 12.2149639,47.1990438 12.2149639,48.4516823 C12.2149639,49.7043208 13.2302572,50.7193117 14.4825933,50.7193117 L14.6419321,50.7193117 C15.8945706,50.7193117 16.9095615,49.7043208 16.9095615,48.4516823 C16.9095615,47.1990438 15.8942682,46.1840528 14.6419321,46.1840528 Z" id="Shape" fill="#000000" fill-rule="nonzero"></path>
                        <path d="M70.0437474,68.162522 C70.0437474,68.5144581 70.1256844,68.861859 70.2832091,69.1769083 L75.7515219,80.1138362 C76.1358095,80.8818067 76.9207116,81.3673818 77.7796897,81.3673818 C78.6386677,81.3673818 79.4238722,80.8821091 79.8078574,80.1138362 L85.2764726,69.1769083 C85.4339972,68.861859 85.5159342,68.5144581 85.5159342,68.162522 L85.5159342,14.4372407 C85.5159342,13.1846022 84.5009433,12.1696113 83.2483048,12.1696113 L72.3113769,12.1696113 C71.0587384,12.1696113 70.0437474,13.1846022 70.0437474,14.4372407 L70.0437474,68.162522 Z M74.5790063,65.8948926 L74.5790063,23.9960547 L80.9806754,23.9960547 L80.9806754,65.8948926 L74.5790063,65.8948926 Z M80.9806754,16.7048702 L80.9806754,19.4607958 L74.5790063,19.4607958 L74.5790063,16.7048702 L80.9806754,16.7048702 Z M77.7796897,74.0290306 L75.9804013,70.4304538 L79.578978,70.4304538 L77.7796897,74.0290306 Z" id="Shape" fill="#000000" fill-rule="nonzero"></path>
                    </g>
                </g>
            </g>
        </g>
    </g>
</svg>