<svg width="78" height="81" viewBox="0 0 78 81" xmlns="http://www.w3.org/2000/svg"><title>schedule</title><g fill="none" fill-rule="evenodd"><path fill="#FFF" d="M3 17h72v41H3z"/><path fill="#FFAF1D" d="M3 7h72v13H3z"/><circle fill="#00AAE3" cx="38" cy="58" r="19"/><g fill="#000" fill-rule="nonzero"><path d="M75.297 4.695H59.81V2.364a2.364 2.364 0 0 0-4.727 0v2.331H41.273V2.364a2.364 2.364 0 0 0-4.727 0v2.331H23.324V2.364a2.364 2.364 0 0 0-4.727 0v2.331H2.523A2.364 2.364 0 0 0 .159 7.059v53.407a2.364 2.364 0 0 0 2.364 2.363H17.03c2.325 9.933 11.249 17.355 21.88 17.355 10.63 0 19.555-7.422 21.88-17.355h14.507a2.364 2.364 0 0 0 2.363-2.363V7.059a2.363 2.363 0 0 0-2.363-2.364zm-56.7 4.727v2.136a2.364 2.364 0 0 0 4.727 0V9.422h13.222v2.136a2.364 2.364 0 0 0 4.727 0V9.422h13.81v2.136a2.364 2.364 0 0 0 4.726 0V9.422h13.125v9.666H4.886V9.422h13.711zM38.91 75.456c-9.786 0-17.748-7.962-17.748-17.748 0-9.786 7.962-17.748 17.748-17.748 9.786 0 17.748 7.962 17.748 17.748 0 9.787-7.962 17.748-17.748 17.748zm22.465-17.354c.003-.131.01-.262.01-.394 0-12.393-10.082-22.475-22.475-22.475S16.434 45.315 16.434 57.708c0 .132.008.263.01.394H4.886V23.816h68.047v34.286H61.375z"/><path d="M41.273 58.305V46.87a2.364 2.364 0 0 0-4.727 0v12.414c0 .627.25 1.228.692 1.671l5.433 5.433a2.357 2.357 0 0 0 1.671.692 2.364 2.364 0 0 0 1.671-4.035l-4.74-4.74z"/></g></g></svg>