<?xml version="1.0" encoding="UTF-8"?>
<svg width="56px" height="67px" viewBox="0 0 56 67" version="1.1" xmlns="http://www.w3.org/2000/svg" xmlns:xlink="http://www.w3.org/1999/xlink">
    <!-- Generator: Sketch 48.2 (47327) - http://www.bohemiancoding.com/sketch -->
    <title>webinar</title>
    <desc>Created with Sketch.</desc>
    <defs></defs>
    <g id="platform" stroke="none" stroke-width="1" fill="none" fill-rule="evenodd" transform="translate(-951.000000, -795.000000)">
        <g id="how-is-works" transform="translate(-80.000000, 645.000000)">
            <g id="Group-2" transform="translate(526.000000, 143.000000)">
                <g id="webinar" transform="translate(505.000000, 7.000000)">
                    <g id="webcam-video-call">
                        <rect id="Rectangle-10" fill="#FFAF1D" x="14" y="54" width="32" height="10"></rect>
                        <circle id="Oval-5" fill="#FFFFFF" cx="28" cy="28" r="14"></circle>
                        <path d="M43.9674365,50.9658845 C51.2294596,45.9110115 55.9842217,37.5032517 55.9842217,27.9840924 C55.9842217,12.5289977 43.45503,6.4665127e-05 28,6.4665127e-05 C12.5450993,6.4665127e-05 0.015778291,12.5290624 0.015778291,27.983963 C0.015778291,37.5031224 4.77054042,45.9108822 12.0325635,50.9657552 L5.3747067,57.833709 C4.91299769,58.4826236 4.66384296,59.2591871 4.66384296,60.0557321 L4.66384296,62.3878152 C4.66384296,64.5026236 6.37830947,66.2169607 8.49298845,66.2169607 L47.5070115,66.2169607 C49.6214965,66.2169607 51.335963,64.5026236 51.335963,62.3878152 L51.335963,60.0557321 C51.335963,59.2591871 51.086873,58.4826236 50.6250993,57.833709 L43.9674365,50.9659492 L43.9674365,50.9658845 Z M28,14.922642 C35.2139122,14.922642 41.0613857,20.7705035 41.0613857,27.9838984 C41.0613857,35.1974226 35.2138476,41.0452841 28,41.0452841 C20.7861524,41.0452841 14.9387436,35.1974226 14.9387436,27.9838984 C14.9387436,20.7705035 20.7860878,14.922642 28,14.922642 Z M13.1373025,59.4908822 L18.2465589,54.2196397 C21.2834273,55.3495982 24.5690624,55.9679261 28,55.9679261 C31.4309376,55.9679261 34.7165727,55.3495982 37.7534411,54.2196397 L42.8626975,59.4908822 L13.1373025,59.4908822 Z" id="Shape" fill="#4D4D4D" fill-rule="nonzero"></path>
                        <path d="M28,36.0952979 C32.4800647,36.0952979 36.1110762,32.4638984 36.1110762,27.9838984 C36.1110762,25.0932379 34.5977182,22.5576536 32.3211178,21.1207945 C32.2721016,22.385709 30.3582079,23.4029561 28,23.4029561 C25.6419861,23.4029561 23.7278984,22.385709 23.6788822,21.1207945 C21.4022818,22.5575242 19.8889238,25.0933025 19.8889238,27.9838984 C19.8889238,32.463963 23.5199353,36.0952979 28,36.0952979 Z" id="Shape" fill="#00AAE3" fill-rule="nonzero"></path>
                    </g>
                </g>
            </g>
        </g>
    </g>
</svg>