<svg width="56" height="67" viewBox="0 0 56 67" xmlns="http://www.w3.org/2000/svg"><title>webinar</title><g fill="none" fill-rule="evenodd"><path fill="#FFAF1D" d="M14 54h32v10H14z"/><circle fill="#FFF" cx="28" cy="28" r="14"/><path d="M43.967 50.966c7.262-5.055 12.017-13.463 12.017-22.982C55.984 12.53 43.455 0 28 0 12.545 0 .016 12.53.016 27.984c0 9.52 4.755 17.927 12.017 22.982l-6.658 6.868a3.834 3.834 0 0 0-.711 2.222v2.332a3.83 3.83 0 0 0 3.829 3.829h39.014a3.83 3.83 0 0 0 3.829-3.83v-2.331c0-.797-.25-1.573-.71-2.222l-6.659-6.868zM28 14.923c7.214 0 13.061 5.848 13.061 13.06 0 7.214-5.847 13.062-13.061 13.062-7.214 0-13.061-5.848-13.061-13.061S20.786 14.923 28 14.923zM13.137 59.49l5.11-5.271A27.91 27.91 0 0 0 28 55.968c3.43 0 6.717-.618 9.753-1.748l5.11 5.27H13.137z" fill="#4D4D4D" fill-rule="nonzero"/><path d="M28 36.095a8.11 8.11 0 0 0 4.321-14.974c-.049 1.265-1.963 2.282-4.321 2.282-2.358 0-4.272-1.017-4.321-2.282A8.11 8.11 0 0 0 28 36.096z" fill="#00AAE3" fill-rule="nonzero"/></g></svg>