<svg width="50" height="67" viewBox="0 0 50 67" xmlns="http://www.w3.org/2000/svg"><title>access</title><g fill="none" fill-rule="evenodd"><path fill="#00AAE3" d="M21 44h8v8h-8z"/><rect fill="#FFF" x="3" y="31" width="45" height="33" rx="3"/><path d="M46.274 28.98h-.978v-8.663C45.296 9.118 36.191 0 24.98 0 13.781 0 4.663 9.105 4.663 20.317c0 1.033.826 1.86 1.859 1.86s1.86-.827 1.86-1.86c0-9.146 7.438-16.598 16.597-16.598 9.146 0 16.598 7.438 16.598 16.598v8.664H3.698a3.598 3.598 0 0 0-3.595 3.595V55.73c0 5.937 4.835 10.771 10.772 10.771h28.223c5.936 0 10.771-4.834 10.771-10.771V32.576a3.598 3.598 0 0 0-3.595-3.595zm-.124 26.75a7.057 7.057 0 0 1-7.052 7.052h-28.21a7.057 7.057 0 0 1-7.052-7.052V32.7H46.15v23.03z" fill="#000" fill-rule="nonzero"/><path d="M24.993 54.972c3.843 0 6.956-3.126 6.956-6.955 0-3.843-3.127-6.956-6.956-6.956-3.843 0-6.956 3.126-6.956 6.956 0 3.829 3.113 6.955 6.956 6.955zm0-10.206c1.79 0 3.237 1.46 3.237 3.237 0 1.777-1.446 3.25-3.237 3.25a3.242 3.242 0 0 1-3.237-3.236c0-1.777 1.446-3.251 3.237-3.251z" fill="#FFAF1D" fill-rule="nonzero"/></g></svg>