<svg width="55" height="62" viewBox="0 0 55 62" xmlns="http://www.w3.org/2000/svg"><title>approve</title><g fill="none"><path d="M51.231 0H15.488a3.714 3.714 0 0 0-3.71 3.71v8.301C4.999 13.951.022 20.206.022 27.601c0 7.396 4.977 13.65 11.758 15.59v14.283a3.714 3.714 0 0 0 3.71 3.71h29.208c.347 0 .68-.138.924-.383l8.937-8.937c.245-.245.383-.577.383-.924V3.71A3.714 3.714 0 0 0 51.23 0zM15.488 2.613h35.743c.605 0 1.097.492 1.097 1.097v3.943H14.392V3.71c0-.605.492-1.097 1.096-1.097zM2.634 27.601c0-7.499 6.1-13.6 13.6-13.6 7.498 0 13.6 6.101 13.6 13.6s-6.101 13.6-13.6 13.6c-7.5 0-13.6-6.101-13.6-13.6zm11.758 29.873V43.71c.605.068 1.219.105 1.842.105 4.87 0 9.244-2.159 12.219-5.569h8.005a1.307 1.307 0 1 0 0-2.613h-6.144a16.095 16.095 0 0 0 2.07-6.625h4.074a1.307 1.307 0 1 0 0-2.613h-4.057a16.094 16.094 0 0 0-1.977-6.625h6.034a1.307 1.307 0 1 0 0-2.613h-7.836c-2.976-3.525-7.425-5.768-12.389-5.768-.622 0-1.237.037-1.841.106v-1.228h37.935v39.368H47.1a3.714 3.714 0 0 0-3.71 3.709v5.228H15.489a1.098 1.098 0 0 1-1.096-1.097zm31.612-.751v-3.38c0-.604.492-1.096 1.096-1.096h3.38l-4.476 4.476z" fill="#4D4D4D"/><path d="M41.592 19.769h4.339a1.307 1.307 0 1 0 0-2.613h-4.34a1.307 1.307 0 1 0 0 2.613zm0 9.238h4.339a1.307 1.307 0 1 0 0-2.613h-4.34a1.307 1.307 0 1 0 0 2.613zm0 9.238h4.339a1.307 1.307 0 1 0 0-2.613h-4.34a1.307 1.307 0 1 0 0 2.613zm4.338 9.238a1.307 1.307 0 1 0 0-2.613H33.709a1.307 1.307 0 1 0 0 2.613h12.223z" fill="#00AAE3"/><path d="M26.378 21.01l-1.594-1.594c-.43-.43-1-.665-1.607-.665s-1.178.236-1.607.665l-8.361 8.36-2.311-2.31c-.43-.43-1-.666-1.607-.666s-1.178.237-1.607.666L6.09 27.06a2.275 2.275 0 0 0 0 3.214l5.512 5.512c.43.43 1 .666 1.607.666s1.178-.236 1.607-.666l11.562-11.562a2.276 2.276 0 0 0 0-3.214zm-13.17 12.688l-5.03-5.03 1.113-1.114 2.994 2.995c.51.51 1.337.51 1.848 0l9.044-9.044 1.112 1.112-11.08 11.08z" fill="#FFAF1D"/></g></svg>