<svg width="63" height="63" viewBox="0 0 63 63" xmlns="http://www.w3.org/2000/svg"><title>assess</title><g fill="none" fill-rule="evenodd"><path fill="#6B8CAE" d="M3 46h9v15H3z"/><path fill="#DE437D" d="M20 33h9v28h-9z"/><path fill="#00AAE3" d="M50 24h9v37h-9z"/><path fill="#FFAF1D" d="M34 38h9v23h-9z"/><g fill="#000" fill-rule="nonzero"><path d="M61.567 60.257H1.31a1.31 1.31 0 0 0 0 2.62h60.257a1.31 1.31 0 0 0 0-2.62z"/><path d="M11.79 44.538H3.93a1.31 1.31 0 0 0-1.31 1.31v15.72c0 .722.587 1.31 1.31 1.31h7.86a1.31 1.31 0 0 0 1.31-1.31v-15.72a1.31 1.31 0 0 0-1.31-1.31zm-1.31 15.72H5.24v-13.1h5.24v13.1zM27.509 31.439h-7.86a1.31 1.31 0 0 0-1.31 1.31v28.818c0 .723.587 1.31 1.31 1.31h7.86a1.31 1.31 0 0 0 1.31-1.31V32.75a1.31 1.31 0 0 0-1.31-1.31zm-1.31 28.818h-5.24V34.058h5.24v26.2zM43.228 36.678h-7.86a1.31 1.31 0 0 0-1.31 1.31v23.58c0 .722.587 1.31 1.31 1.31h7.86a1.31 1.31 0 0 0 1.31-1.31v-23.58a1.31 1.31 0 0 0-1.31-1.31zm-1.31 23.58h-5.24v-20.96h5.24v20.96zM58.947 20.96h-7.86a1.31 1.31 0 0 0-1.31 1.31v39.297c0 .723.588 1.31 1.31 1.31h7.86a1.31 1.31 0 0 0 1.31-1.31V22.27a1.31 1.31 0 0 0-1.31-1.31zm-1.31 39.297h-5.24V23.58h5.24v36.678zM7.86 23.579c-2.89 0-5.24 2.35-5.24 5.24s2.35 5.24 5.24 5.24 5.24-2.35 5.24-5.24-2.35-5.24-5.24-5.24zm0 7.86a2.623 2.623 0 0 1-2.62-2.62 2.622 2.622 0 0 1 2.62-2.62 2.623 2.623 0 0 1 2.62 2.62 2.623 2.623 0 0 1-2.62 2.62zM23.579 10.48c-2.89 0-5.24 2.35-5.24 5.24s2.35 5.24 5.24 5.24 5.24-2.35 5.24-5.24-2.35-5.24-5.24-5.24zm0 7.86a2.623 2.623 0 0 1-2.62-2.62 2.622 2.622 0 0 1 2.62-2.62 2.623 2.623 0 0 1 2.62 2.62 2.622 2.622 0 0 1-2.62 2.62zM39.298 15.72c-2.89 0-5.24 2.35-5.24 5.24 0 2.889 2.35 5.239 5.24 5.239s5.24-2.35 5.24-5.24-2.35-5.24-5.24-5.24zm0 7.859a2.623 2.623 0 0 1-2.62-2.62 2.622 2.622 0 0 1 2.62-2.62 2.623 2.623 0 0 1 2.62 2.62 2.623 2.623 0 0 1-2.62 2.62zM55.018 0c-2.89 0-5.24 2.35-5.24 5.24s2.35 5.24 5.24 5.24 5.24-2.35 5.24-5.24S57.907 0 55.017 0zm0 7.86a2.623 2.623 0 0 1-2.62-2.62 2.622 2.622 0 0 1 2.62-2.62 2.623 2.623 0 0 1 2.62 2.62 2.623 2.623 0 0 1-2.62 2.62z"/><path d="M53.168 7.09a1.31 1.31 0 0 0-1.852 0L41.15 17.254a1.31 1.31 0 0 0 1.852 1.852L53.168 8.942a1.31 1.31 0 0 0 0-1.853zM36.13 17.936l-8.414-2.4a1.297 1.297 0 0 0-1.617.901c-.199.697.205 1.42.899 1.62l8.415 2.4a1.311 1.311 0 0 0 .718-2.52zM21.535 17.352a1.31 1.31 0 0 0-1.839-.21L9.82 25.017a1.309 1.309 0 0 0 .818 2.335c.285 0 .573-.095.815-.283l9.877-7.876c.565-.453.66-1.276.206-1.841z"/></g></g></svg>