<svg width="91" height="86" viewBox="0 0 91 86" xmlns="http://www.w3.org/2000/svg"><title>Build</title><g fill="none" fill-rule="evenodd"><path fill="#FFF" d="M4.304 6.174H61.13v77.348H4.304z"/><g fill-rule="nonzero"><path d="M15.035 24.73h36.873a2.643 2.643 0 1 0 0-5.286H15.035a2.643 2.643 0 1 0 0 5.286zm0 9.08h36.873a2.643 2.643 0 1 0 0-5.285H15.035a2.643 2.643 0 1 0 0 5.286zm19.506 31.037H15.035a2.643 2.643 0 1 0 0 5.286h19.506a2.643 2.643 0 0 0 0-5.286z" fill="#FFAF1D"/><path d="M89.4 5.253L81.63.59a2.642 2.642 0 0 0-3.627.906L64.474 24.044V8.064a2.643 2.643 0 0 0-2.643-2.643H2.643A2.643 2.643 0 0 0 0 8.064v74.477a2.643 2.643 0 0 0 2.643 2.643h59.188a2.643 2.643 0 0 0 2.643-2.643V51.932L90.307 8.88a2.643 2.643 0 0 0-.907-3.626zM55.265 57.006l-4.387 3.641 1.15-5.584 25.355-42.259 3.238 1.943-25.356 42.259zM83.34 10.214L80.103 8.27l1.073-1.788 3.238 1.943-1.073 1.788zM5.286 79.898v-69.19h53.902v22.146l-4.668 7.78a2.643 2.643 0 0 0-2.612-3.03l-36.873.001a2.643 2.643 0 1 0 0 5.287h36.873c.588 0 1.13-.195 1.569-.52l-2.589 4.314H15.035a2.643 2.643 0 1 0 0 5.286h32.681l-.454.758a2.645 2.645 0 0 0-.323.827l-.454 2.21h-31.45a2.643 2.643 0 1 0 0 5.286h30.363l-1.215 5.905a2.643 2.643 0 0 0 4.277 2.566l10.528-8.738c.072-.06.134-.13.2-.197v19.309H5.286z" fill="#000"/></g></g></svg>