<svg width="54" height="72" viewBox="0 0 54 72" xmlns="http://www.w3.org/2000/svg"><title>certify</title><g fill="none"><path d="M43.521 62.106a2.024 2.024 0 0 0 1.518-.367c.432-.313.733-.796.813-1.333l.48-3.192a1.986 1.986 0 0 1 1.077-1.48l2.89-1.444a2.02 2.02 0 0 0 1.02-1.185 2.04 2.04 0 0 0-.127-1.56l-1.49-2.88a1.988 1.988 0 0 1 0-1.816l1.49-2.876c.244-.483.296-1.04.128-1.56a2.031 2.031 0 0 0-1.02-1.185l-2.89-1.444a1.986 1.986 0 0 1-1.078-1.48l-.48-3.193a2.017 2.017 0 0 0-.813-1.33 2 2 0 0 0-1.518-.366l-3.197.534a1.98 1.98 0 0 1-1.731-.563l-2.27-2.308a2.034 2.034 0 0 0-2.888 0l-2.271 2.308a1.97 1.97 0 0 1-1.731.563l-3.192-.526a2.009 2.009 0 0 0-1.52.367 2.006 2.006 0 0 0-.813 1.33l-.478 3.192a1.993 1.993 0 0 1-1.077 1.48l-2.893 1.444c-.48.247-.853.668-1.018 1.185a2.056 2.056 0 0 0 .125 1.56l1.49 2.877a1.97 1.97 0 0 1 0 1.816l-1.49 2.879a2.052 2.052 0 0 0-.125 1.56c.168.515.535.938 1.018 1.185l2.893 1.444c.58.293.978.839 1.077 1.48l.478 3.193c.08.534.378 1.017.813 1.333.437.32.983.451 1.52.366l3.192-.526a1.96 1.96 0 0 1 1.73.56l2.272 2.302a2.017 2.017 0 0 0 2.887 0l2.27-2.302c.456-.457 1.1-.67 1.732-.56l3.197.518zm-8.646-2.33c-6.792 0-12.314-5.523-12.314-12.313 0-6.79 5.525-12.318 12.314-12.318 6.793 0 12.315 5.531 12.315 12.318s-5.52 12.312-12.315 12.312z" fill="#FFAF1D"/><path d="M34.878 36.922c-5.8 0-10.524 4.718-10.524 10.521 0 5.804 4.726 10.522 10.524 10.522 5.807 0 10.525-4.718 10.525-10.522 0-5.803-4.718-10.521-10.525-10.521z" fill="#00AAE3"/><path d="M53.218 64.41l-5.726-5.73-.29 1.934a3.41 3.41 0 0 1-1.362 2.236 3.368 3.368 0 0 1-2.535.606l-3.2-.523c-.264-.017-.424.057-.54.176l-.546.548 7.48 7.478c.29.29.708.392 1.095.276.386-.122.67-.444.75-.844l.674-3.63 3.64-.682c.398-.074.72-.36.836-.75.12-.39.011-.813-.276-1.094zm-23.464-1.491l-3.297.537a3.406 3.406 0 0 1-3.902-2.85l-.29-1.925-5.724 5.73c-.284.284-.39.704-.273 1.091.122.39.446.67.839.75l3.638.68.682 3.635c.074.4.36.722.747.844a1.09 1.09 0 0 0 1.089-.273l7.477-7.48-.545-.552a.616.616 0 0 0-.441-.187z" fill="#FFAF1D"/><path d="M38.141 11.985H11.326c-.967 0-1.748.782-1.748 1.748a1.742 1.742 0 0 0 1.748 1.75H38.14c.964 0 1.748-.778 1.748-1.744 0-.967-.787-1.754-1.748-1.754zm0 8.965H11.326a1.745 1.745 0 1 0 0 3.492H38.14a1.747 1.747 0 1 0 0-3.493z" fill="#4D4D4D"/><path d="M19.53 57.456l-1.32-.66a4.628 4.628 0 0 1-.93-.633H5.991a1.403 1.403 0 0 1-1.401-1.398V5.127c0-.776.628-1.404 1.401-1.404h37.567c.77 0 1.401.628 1.401 1.404v25.599c.626.148 1.222.42 1.745.81 1.023.73 1.731 1.899 1.922 3.172l.056-29.578A5.128 5.128 0 0 0 43.558 0H5.991a5.139 5.139 0 0 0-5.13 5.13v49.64a5.14 5.14 0 0 0 5.13 5.133H17.09l2.44-2.447z" fill="#4D4D4D"/></g></svg>