<svg width="68" height="94" viewBox="0 0 68 94" xmlns="http://www.w3.org/2000/svg"><title>management</title><g fill="none" fill-rule="evenodd"><path d="M15 82c-3.644-2.104-6.311-3.437-8-4-1.689-.563-2.022-.896-1-1v-7l1-18-5-16 2-14 6-12 5-5 15-3h8l10 3 5 10 7 11v12l3 6 3 7-6 5v10l-7 6-10 2-1 10-1 8-11-5-15-5z" fill="#FFF"/><path d="M67.165 48.148l-5.678-10.373v-7.11C61.487 13.756 47.73 0 30.822 0S.157 13.756.157 30.665v5.266c0 6.54 1.967 12.798 5.693 18.135v15.095a1.828 1.828 0 0 0 3.656 0V53.482c0-.386-.122-.762-.349-1.074A27.864 27.864 0 0 1 3.813 35.93v-5.266c0-14.893 12.116-27.01 27.01-27.01 14.892 0 27.008 12.117 27.008 27.01v7.578c0 .306.077.608.225.877l5.903 10.783a1.772 1.772 0 0 1-.033 1.787c-.158.265-.624.88-1.546.88h-.01l-2.703-.013h-.008a1.828 1.828 0 0 0-1.828 1.828v8.158c0 4.36-3.547 7.906-7.906 7.906h-5.488a4.522 4.522 0 0 0-4.516 4.517v13.972l-24.85-11.17a1.828 1.828 0 1 0-1.499 3.335L41 93.431a1.828 1.828 0 0 0 2.577-1.668V74.966c0-.475.386-.861.86-.861h5.489c6.375 0 11.562-5.187 11.562-11.562v-6.321l.866.004h.026a5.408 5.408 0 0 0 4.688-2.665 5.408 5.408 0 0 0 .098-5.413z" fill="#000" fill-rule="nonzero"/><path d="M48.688 24.356l-1.227-.145c-.078-.2-.16-.397-.246-.593l.765-.97c1.438-1.825 1.402-4.321-.085-5.809l-3.204-3.204c-1.487-1.487-3.984-1.523-5.808-.085l-.97.765a18.078 18.078 0 0 0-.594-.246l-.145-1.227c-.273-2.306-2.065-4.046-4.168-4.046h-4.53c-2.104 0-3.895 1.74-4.168 4.047l-.145 1.227c-.2.078-.397.16-.593.245l-.97-.765c-1.825-1.438-4.321-1.402-5.809.086l-3.204 3.204c-1.486 1.487-1.523 3.984-.085 5.807l.765.97c-.086.197-.168.395-.246.594l-1.227.145c-2.307.273-4.047 2.065-4.047 4.168v4.53c0 2.104 1.74 3.896 4.047 4.169l1.227.145c.078.199.16.397.246.593l-.766.97c-1.438 1.825-1.401 4.322.086 5.809l3.204 3.204c1.487 1.487 3.984 1.524 5.808.085l.97-.765c.196.086.394.168.593.246l.146 1.227c.273 2.307 2.064 4.047 4.167 4.047h4.531c2.103 0 3.895-1.74 4.168-4.047l.145-1.227c.2-.078.398-.16.594-.246l.97.765c1.824 1.438 4.321 1.401 5.809-.086l3.203-3.203c1.487-1.487 1.524-3.985.086-5.809l-.765-.97c.085-.196.167-.394.246-.594l1.227-.145c2.306-.273 4.046-2.064 4.046-4.167v-4.531c0-2.103-1.74-3.895-4.047-4.168zm.39 8.699c0 .184-.311.477-.819.537l-2.353.278a1.828 1.828 0 0 0-1.527 1.262 14.26 14.26 0 0 1-.924 2.23c-.33.636-.257 1.408.187 1.972l1.468 1.861c.317.402.33.83.2.96l-3.204 3.203c-.13.13-.558.117-.96-.2l-1.86-1.467a1.829 1.829 0 0 0-1.973-.188c-.714.37-1.464.68-2.23.925a1.828 1.828 0 0 0-1.262 1.527l-.278 2.353c-.06.508-.353.82-.537.82h-4.53c-.184 0-.478-.312-.538-.82l-.278-2.353a1.828 1.828 0 0 0-1.261-1.528 14.258 14.258 0 0 1-2.23-.924 1.825 1.825 0 0 0-1.972.188l-1.862 1.468c-.401.316-.829.33-.959.2l-3.204-3.204c-.13-.13-.116-.558.2-.96l1.468-1.861a1.828 1.828 0 0 0 .188-1.973 14.25 14.25 0 0 1-.924-2.23 1.828 1.828 0 0 0-1.527-1.26l-2.354-.279c-.508-.06-.82-.353-.82-.537v-4.53c0-.185.313-.478.82-.538l2.354-.278a1.828 1.828 0 0 0 1.527-1.261c.243-.766.554-1.516.924-2.23a1.828 1.828 0 0 0-.187-1.972l-1.468-1.862c-.317-.402-.33-.83-.2-.96l3.204-3.203c.13-.13.557-.117.96.2l1.86 1.468a1.828 1.828 0 0 0 1.974.187c.712-.37 1.462-.68 2.228-.924a1.828 1.828 0 0 0 1.261-1.527l.278-2.353c.06-.508.354-.82.537-.82h4.531c.184 0 .477.312.537.82l.278 2.353c.085.712.578 1.31 1.262 1.527.765.244 1.516.555 2.23.924.636.33 1.408.257 1.972-.187l1.861-1.468c.402-.317.83-.33.96-.2l3.203 3.203c.13.13.117.558-.2.96l-1.467 1.861a1.828 1.828 0 0 0-.188 1.973c.37.713.68 1.464.925 2.23a1.828 1.828 0 0 0 1.527 1.26l2.353.279c.508.06.82.353.82.537v4.53z" fill="#00AAE3" fill-rule="nonzero"/><path d="M30.741 21.542c-5.099 0-9.247 4.149-9.247 9.248 0 5.1 4.148 9.248 9.247 9.248 5.1 0 9.248-4.149 9.248-9.248 0-5.099-4.148-9.248-9.248-9.248zm0 14.84a5.598 5.598 0 0 1-5.591-5.592 5.598 5.598 0 0 1 5.591-5.592 5.598 5.598 0 0 1 5.592 5.592 5.598 5.598 0 0 1-5.592 5.592z" fill="#FFAF1D" fill-rule="nonzero"/><circle fill="#000" fill-rule="nonzero" cx="7.844" cy="76.315" r="1.828"/></g></svg>