<svg width="70" height="61" viewBox="0 0 70 61" xmlns="http://www.w3.org/2000/svg"><title>elearning</title><g fill="none" fill-rule="evenodd"><path d="M65.333 36.167V5.833c0-.316-.115-.59-.346-.82a1.121 1.121 0 0 0-.82-.346H5.833c-.316 0-.59.115-.82.346-.23.23-.346.504-.346.82v30.334c0 .316.115.59.346.82.23.23.504.346.82.346h58.334c.316 0 .59-.115.82-.346.23-.23.346-.504.346-.82zM70 5.833V45.5c0 1.604-.571 2.977-1.714 4.12-1.142 1.142-2.515 1.713-4.12 1.713H44.334c0 .9.195 1.841.584 2.826.389.984.777 1.847 1.166 2.588.39.742.584 1.27.584 1.586 0 .632-.231 1.18-.693 1.641-.462.462-1.009.693-1.64.693H25.666c-.632 0-1.18-.231-1.641-.693-.462-.462-.693-1.009-.693-1.64 0-.34.195-.876.584-1.605.389-.729.777-1.58 1.166-2.552.39-.972.584-1.92.584-2.844H5.833c-1.604 0-2.977-.57-4.12-1.713C.572 48.477 0 47.104 0 45.5V5.833c0-1.604.571-2.977 1.714-4.12C2.856.572 4.229 0 5.834 0h58.333c1.604 0 2.977.571 4.12 1.714C69.428 2.856 70 4.229 70 5.834z" fill="#4D4D4D" fill-rule="nonzero"/><path fill="#FFAF1D" d="M7 8h16v26H7z"/><path fill="#00AAE3" d="M27 8h34v5H27zM27 15h34v5H27zM27 22h34v5H27zM27 29h34v5H27z"/></g></svg>