<svg width="86" height="90" viewBox="0 0 86 90" xmlns="http://www.w3.org/2000/svg"><title>organize</title><g fill="none" fill-rule="evenodd"><path fill="#FFF" d="M2.304.174H62.13v88.348H2.304z"/><path d="M32.618 38.598c-6.997 0-12.689 5.701-12.689 12.707 0 4.672 3.682 8.466 4.102 8.883.69.686 1.601 2.207 1.897 3.161l1.013 4.155a2.267 2.267 0 0 0 2.203 1.731h6.948a2.267 2.267 0 0 0 2.203-1.73l1.014-4.157c.294-.951 1.205-2.472 1.897-3.16.42-.417 4.1-4.211 4.1-8.883.001-7.006-5.69-12.707-12.688-12.707zm5.39 18.374c-1.25 1.243-2.566 3.453-3.063 5.141l-.027.102-.607 2.485h-3.385l-.606-2.484a1.843 1.843 0 0 0-.028-.105c-.499-1.69-1.816-3.899-3.059-5.134-.77-.776-2.769-3.306-2.769-5.671 0-4.506 3.658-8.172 8.154-8.172s8.154 3.666 8.154 8.172c0 2.364-1.999 4.895-2.764 5.666z" fill="#FFAF1D" fill-rule="nonzero"/><path d="M62.55.174H2.686A2.267 2.267 0 0 0 .418 2.442V87.25a2.267 2.267 0 0 0 2.267 2.268h59.866a2.267 2.267 0 0 0 2.268-2.268V2.44A2.267 2.267 0 0 0 62.55.175zm-2.267 84.81H4.953V4.708h55.33v80.274z" fill="#000" fill-rule="nonzero"/><path d="M12.663 26.705h39.91a2.267 2.267 0 0 0 2.268-2.267V12.419a2.267 2.267 0 0 0-2.268-2.268h-39.91a2.267 2.267 0 0 0-2.268 2.268v12.019a2.267 2.267 0 0 0 2.268 2.267zm2.268-12.018h35.375v7.483H14.93v-7.483z" fill="#000" fill-rule="nonzero"/><path d="M35.113 71.302h-4.99a2.267 2.267 0 1 0 0 4.535h4.99a2.267 2.267 0 1 0 0-4.535zm-2.415 5.896h-.16a2.267 2.267 0 1 0 0 4.535h.16a2.267 2.267 0 1 0 0-4.535z" fill="#00AAE3" fill-rule="nonzero"/><path d="M32.698 35.927a2.267 2.267 0 1 0 0-4.535h-.16a2.267 2.267 0 1 0 0 4.535h.16zM21.36 37.59a2.267 2.267 0 0 0-2.268-2.268h-.16a2.267 2.267 0 1 0 0 4.535h.16a2.267 2.267 0 0 0 2.268-2.267zm24.944-2.268h-.16a2.267 2.267 0 1 0 0 4.535h.16a2.267 2.267 0 1 0 0-4.535zm5.14 11.036h-.16a2.267 2.267 0 1 0 0 4.535h.16a2.267 2.267 0 1 0 0-4.535zm-36.584 0h-.16a2.267 2.267 0 1 0 0 4.535h.16a2.267 2.267 0 1 0 0-4.535zm55.401 21.978c0 .352.082.7.24 1.015l5.468 10.937a2.268 2.268 0 0 0 4.056 0l5.469-10.937c.157-.315.24-.663.24-1.015V14.611a2.267 2.267 0 0 0-2.268-2.267H72.529a2.267 2.267 0 0 0-2.268 2.267v53.725zm4.535-2.267V24.17h6.402v41.899h-6.402zm6.402-49.19v2.756h-6.402v-2.756h6.402zm-3.2 57.324l-1.8-3.599h3.598l-1.799 3.599z" fill="#000" fill-rule="nonzero"/></g></svg>