<svg width="78" height="78" viewBox="0 0 78 78" xmlns="http://www.w3.org/2000/svg"><title>track</title><g fill="none" fill-rule="evenodd"><circle fill="#FFAF1D" cx="68.5" cy="58.5" r="8.5"/><circle fill="#00AAE3" cx="8.5" cy="58.5" r="8.5"/><circle fill="#008215" cx="39.5" cy="9.5" r="8.5"/><path d="M73.05 50.887a34.96 34.96 0 0 0 .916-7.853c0-12.23-6.228-23.369-16.662-29.791a1.344 1.344 0 1 0-1.41 2.29c9.631 5.93 15.382 16.21 15.382 27.501 0 2.322-.27 4.641-.77 6.922a9.403 9.403 0 0 0-1.92-.197c-5.19 0-9.414 4.224-9.414 9.413 0 5.19 4.223 9.414 9.414 9.414S78 64.362 78 59.172c0-3.575-2.005-6.691-4.95-8.285zm-4.464 15.01a6.732 6.732 0 0 1-6.724-6.725 6.732 6.732 0 0 1 6.724-6.724 6.732 6.732 0 0 1 6.724 6.724 6.732 6.732 0 0 1-6.724 6.725zm-17.253 6.968A32.097 32.097 0 0 1 39 75.31c-8.587 0-16.847-3.463-22.885-9.537a9.378 9.378 0 0 0 2.713-6.6c0-5.19-4.223-9.414-9.414-9.414S0 53.983 0 59.172c0 5.19 4.223 9.414 9.414 9.414a9.35 9.35 0 0 0 4.547-1.177C20.522 74.15 29.578 78 39 78c4.62 0 9.115-.892 13.362-2.65a1.346 1.346 0 0 0 .73-1.758 1.346 1.346 0 0 0-1.759-.727zM2.69 59.172a6.732 6.732 0 0 1 6.724-6.724 6.732 6.732 0 0 1 6.724 6.724 6.732 6.732 0 0 1-6.724 6.725 6.732 6.732 0 0 1-6.724-6.725zm2.69-17.196a1.345 1.345 0 0 0 1.436-1.247c.957-13.568 10.201-24.906 23.158-28.663 1.148 3.902 4.756 6.762 9.026 6.762 5.191 0 9.414-4.225 9.414-9.414C48.414 4.224 44.19 0 39 0c-5.179 0-9.394 4.205-9.412 9.38-14.23 3.963-24.41 16.333-25.455 31.161a1.343 1.343 0 0 0 1.246 1.435zM39 2.69a6.732 6.732 0 0 1 6.724 6.724A6.732 6.732 0 0 1 39 16.138a6.732 6.732 0 0 1-6.724-6.724A6.732 6.732 0 0 1 39 2.69z" fill="#000" fill-rule="nonzero"/></g></svg>