<?xml version="1.0" encoding="utf-8"?>
<!-- Generator: Adobe Illustrator 22.0.1, SVG Export Plug-In . SVG Version: 6.00 Build 0)  -->
<svg version="1.1" id="Capa_1" xmlns="http://www.w3.org/2000/svg" xmlns:xlink="http://www.w3.org/1999/xlink" x="0px" y="0px"
	 viewBox="0 0 469.5 469.5" style="enable-background:new 0 0 469.5 469.5;" xml:space="preserve">
<style type="text/css">
	.st0{fill:#F2EBD9;}
	.st1{fill:#CECECE;}
	.st2{fill:#F2960F;}
	.st3{fill:#082947;}
</style>
<g>
	<path class="st0" d="M348.8,372V37.4c0-8.4,2.8-16.2,7.5-22.5H83.2c-12.6,0-22.4,9.6-22.4,22v335.1c0,12.7,10,23,22.4,23h73.6
		v-45.1c-12.5-12.6-19.6-29.8-19.6-47.6c0-37.2,30.3-67.5,67.5-67.5s67.5,30.3,67.5,67.5c0,18.2-7.4,35.6-20.4,48.3V395l104.6-0.2
		C351.6,388.5,348.8,380.6,348.8,372z M128.7,85.1l23.3-30c1.4-1.8,3.6-2.9,5.9-2.9c2.3,0,4.5,1.1,5.9,2.9l17.4,22.4l17.4-22.4
		c1.4-1.8,3.6-2.9,5.9-2.9c2.3,0,4.5,1.1,5.9,2.9l17.4,22.4l17.4-22.4c1.4-1.8,3.6-2.9,5.9-2.9s4.5,1.1,5.9,2.9l23.3,30
		c2.5,3.3,2,8-1.3,10.5c-3.3,2.5-8,2-10.5-1.3l-17.4-22.4l-17.4,22.4c-1.4,1.8-3.6,2.9-5.9,2.9s-4.5-1.1-5.9-2.9l-17.4-22.4
		l-17.4,22.4c-1.4,1.8-3.6,2.9-5.9,2.9c-2.3,0-4.5-1.1-5.9-2.9l-17.4-22.4l-17.4,22.4c-1.5,1.9-3.7,2.9-5.9,2.9
		c-1.6,0-3.2-0.5-4.6-1.6C126.7,93,126.1,88.3,128.7,85.1z M104.8,122h140c4.1,0,7.5,3.4,7.5,7.5s-3.4,7.5-7.5,7.5h-140
		c-4.1,0-7.5-3.4-7.5-7.5S100.6,122,104.8,122z M274.8,197h-140c-4.1,0-7.5-3.4-7.5-7.5s3.4-7.5,7.5-7.5h140c4.1,0,7.5,3.4,7.5,7.5
		S278.9,197,274.8,197z M304.8,167h-200c-4.1,0-7.5-3.4-7.5-7.5s3.4-7.5,7.5-7.5h200c4.1,0,7.5,3.4,7.5,7.5S308.9,167,304.8,167z
		 M304.8,137h-30c-4.1,0-7.5-3.4-7.5-7.5s3.4-7.5,7.5-7.5h30c4.1,0,7.5,3.4,7.5,7.5S308.9,137,304.8,137z"/>
	<path class="st1" d="M386.1,15c-12.3,0.1-22.3,10.1-22.3,22.5V82h45v-45C408.8,24.9,398.6,15,386.1,15z"/>
	<path class="st1" d="M363.8,372c0,12.5,10,22.6,22.3,22.7c12.3,0,22.7-10.4,22.7-22.7v-45h-45V372z"/>
	<path class="st2" d="M204.6,249.8c-28.9,0-52.5,23.6-52.5,52.5c0,14.8,6.3,29,17.3,38.9c9.7,8.7,22.2,13.6,35.2,13.6
		c12.3,0,24.1-4.3,33.5-12.1c0.7-1,1.6-1.8,2.6-2.3c10.4-9.9,16.4-23.7,16.4-38C257.1,273.4,233.5,249.8,204.6,249.8z M204.6,339.9
		c-20.7,0-37.5-16.8-37.5-37.5s16.8-37.5,37.5-37.5s37.5,16.8,37.5,37.5S225.3,339.9,204.6,339.9z"/>
	<path class="st2" d="M207.6,435.3l29.1,14.6v-88.2c-9.8,5.3-20.8,8.2-32.1,8.2c-11.6,0-22.9-3-32.9-8.6v88.6l29.1-14.6
		C203,434.2,205.5,434.2,207.6,435.3z"/>
	<path class="st2" d="M204.6,279.9c-12.4,0-22.5,10.1-22.5,22.5s10.1,22.5,22.5,22.5s22.5-10.1,22.5-22.5S217,279.9,204.6,279.9z"/>
	<path class="st3" d="M416.2,97c4.1,0,7.5-3.4,7.5-7.5V36.9c0-20.4-16.9-37-37.7-37H83.2c-21,0-37.4,16.2-37.4,37v335.1
		c0,20.9,16.8,38,37.4,38h73.6v52c0,2.6,1.3,5,3.6,6.4s5,1.5,7.3,0.3l36.6-18.3l36.6,18.3c1.1,0.5,2.2,0.8,3.4,0.8
		c1.4,0,2.7-0.4,3.9-1.1c2.2-1.4,3.6-3.8,3.6-6.4v-52l134.3-0.2c20.8,0,37.7-16.9,37.7-37.7v-52.6c0-4.1-3.4-7.5-7.5-7.5h-52.5V97
		H416.2z M408.8,372c0,12.3-10.4,22.7-22.7,22.7c-12.3-0.1-22.3-10.2-22.3-22.7v-45h45V372z M240.7,340.4c-1.1,0.6-1.9,1.4-2.6,2.3
		c-9.4,7.8-21.2,12.1-33.5,12.1c-13,0-25.5-4.8-35.2-13.6c-11-10-17.3-24.2-17.3-38.9c0-28.9,23.6-52.5,52.5-52.5
		s52.5,23.6,52.5,52.5C257.1,316.7,251.1,330.5,240.7,340.4z M171.8,449.9v-88.6c10,5.6,21.2,8.6,32.9,8.6c11.3,0,22.3-2.8,32.1-8.2
		v88.2l-29.1-14.6c-2.1-1.1-4.6-1.1-6.7,0L171.8,449.9z M251.8,350.6c13-12.7,20.4-30.1,20.4-48.3c0-37.2-30.3-67.5-67.5-67.5
		s-67.5,30.3-67.5,67.5c0,17.8,7.1,34.9,19.6,47.6V395H83.2c-12.4,0-22.4-10.3-22.4-23V36.9c0-12.3,9.8-22,22.4-22h273.1
		c-4.7,6.3-7.5,14-7.5,22.5v334.6c0,8.5,2.8,16.4,7.6,22.8L251.8,395V350.6z M408.8,82h-45V37.4c0-12.3,10-22.4,22.3-22.5
		c12.5,0,22.7,9.9,22.7,22V82z"/>
	<path class="st3" d="M204.6,264.9c-20.7,0-37.5,16.8-37.5,37.5s16.8,37.5,37.5,37.5s37.5-16.8,37.5-37.5S225.3,264.9,204.6,264.9z
		 M204.6,324.9c-12.4,0-22.5-10.1-22.5-22.5s10.1-22.5,22.5-22.5s22.5,10.1,22.5,22.5S217,324.9,204.6,324.9z"/>
	<path class="st3" d="M304.8,152h-200c-4.1,0-7.5,3.4-7.5,7.5s3.4,7.5,7.5,7.5h200c4.1,0,7.5-3.4,7.5-7.5S308.9,152,304.8,152z"/>
	<path class="st3" d="M274.8,182h-140c-4.1,0-7.5,3.4-7.5,7.5s3.4,7.5,7.5,7.5h140c4.1,0,7.5-3.4,7.5-7.5S278.9,182,274.8,182z"/>
	<path class="st3" d="M304.8,122h-30c-4.1,0-7.5,3.4-7.5,7.5s3.4,7.5,7.5,7.5h30c4.1,0,7.5-3.4,7.5-7.5S308.9,122,304.8,122z"/>
	<path class="st3" d="M104.8,137h140c4.1,0,7.5-3.4,7.5-7.5s-3.4-7.5-7.5-7.5h-140c-4.1,0-7.5,3.4-7.5,7.5S100.6,137,104.8,137z"/>
	<path class="st3" d="M130,95.6c1.4,1.1,3,1.6,4.6,1.6c2.2,0,4.4-1,5.9-2.9l17.4-22.4l17.4,22.4c1.4,1.8,3.6,2.9,5.9,2.9
		c2.3,0,4.5-1.1,5.9-2.9l17.4-22.4L222,94.3c1.4,1.8,3.6,2.9,5.9,2.9s4.5-1.1,5.9-2.9l17.4-22.4l17.4,22.4c2.5,3.3,7.3,3.9,10.5,1.3
		c3.3-2.5,3.9-7.3,1.3-10.5l-23.3-30c-1.4-1.8-3.6-2.9-5.9-2.9s-4.5,1.1-5.9,2.9l-17.4,22.4l-17.4-22.4c-1.4-1.8-3.6-2.9-5.9-2.9
		c-2.3,0-4.5,1.1-5.9,2.9l-17.4,22.4l-17.4-22.4c-1.4-1.8-3.6-2.9-5.9-2.9c-2.3,0-4.5,1.1-5.9,2.9l-23.3,30
		C126.1,88.3,126.7,93,130,95.6z"/>
</g>
</svg>
